<svg width="14" height="13" viewBox="0 0 14 13" fill="none" xmlns="http://www.w3.org/2000/svg">
<g clip-path="url(#clip0_43_38)">
<path d="M0 5.19307C0 5.74612 0.342327 6.08378 0.903035 6.08378H12.914C13.4747 6.08378 13.8229 5.74612 13.8229 5.19307V4.90781C13.8229 4.36059 13.4747 4.0113 12.914 4.0113H0.903035C0.342327 4.0113 0 4.36059 0 4.90781V5.19307ZM3.75379 12.4759H10.0691C11.4325 12.4759 11.8575 11.6899 12.0287 10.8458L12.8491 6.8813H0.979762L1.79427 10.8458C1.96543 11.6899 2.39038 12.4759 3.75379 12.4759ZM4.13743 11.4745C3.91315 11.5095 3.74789 11.393 3.71247 11.1951L3.20489 8.26685C3.16948 8.06893 3.29932 7.91175 3.5236 7.87097C3.74789 7.84186 3.91905 7.95249 3.95446 8.1504L4.45615 11.0787C4.48566 11.2766 4.36762 11.4338 4.13743 11.4745ZM6.00843 11.4687C5.78416 11.4804 5.61886 11.3464 5.60707 11.1427L5.41231 8.24941C5.40052 8.04563 5.54804 7.90008 5.76643 7.88264C5.9966 7.86516 6.15006 8.0049 6.16779 8.20862L6.36255 11.1019C6.37434 11.3057 6.22682 11.4571 6.00843 11.4687ZM7.82632 11.4687C7.60204 11.4571 7.45447 11.3057 7.46626 11.1019L7.66102 8.20862C7.67875 8.0049 7.83221 7.86516 8.06238 7.88264C8.28077 7.90008 8.42834 8.04563 8.4165 8.24941L8.22174 11.1427C8.20995 11.3464 8.0447 11.4804 7.82632 11.4687ZM9.6855 11.4745C9.45529 11.4338 9.33728 11.2766 9.36679 11.0787L9.86848 8.1504C9.90389 7.95249 10.075 7.84186 10.2993 7.87097C10.5236 7.91175 10.6534 8.08056 10.618 8.27847L10.1104 11.1951C10.075 11.393 9.90389 11.5095 9.6855 11.4745ZM1.90051 4.26162H3.08094L5.15852 0.704652C5.31787 0.425216 5.18803 0.18071 4.96964 0.064279C4.75716 -0.0463306 4.47386 -0.0288659 4.3145 0.233104L1.90051 4.26162ZM10.742 4.26162H11.9224L9.50842 0.233104C9.35496 -0.0230443 9.07165 -0.040509 8.85327 0.064279C8.64078 0.18071 8.50504 0.425216 8.6644 0.704652L10.742 4.26162Z" fill="#B5B5B5" fill-opacity="0.85"/>
</g>
<defs>
<clipPath id="clip0_43_38">
<rect width="14" height="13" fill="white"/>
</clipPath>
</defs>
</svg>
