<svg width="24" height="24" viewBox="0 0 24 24" fill="none" xmlns="http://www.w3.org/2000/svg">
<path d="M2.76046 19.4281H21.2396C22.3354 19.4281 23 18.8807 23 18.0485C23 16.9083 21.8108 15.8821 20.8082 14.8674C20.0387 14.0808 19.8288 12.4617 19.7355 11.1505C19.6539 6.77244 18.4648 3.76247 15.3635 2.66793C14.9205 1.17434 13.7197 0 11.9942 0C10.2803 0 9.06783 1.17434 8.63645 2.66793C5.53523 3.76247 4.34605 6.77244 4.26444 11.1505C4.17117 12.4617 3.96131 14.0808 3.19183 14.8674C2.17753 15.8821 1 16.9083 1 18.0485C1 18.8807 1.65289 19.4281 2.76046 19.4281ZM11.9942 24C13.9762 24 15.4218 22.5862 15.5733 20.99H8.42659C8.57816 22.5862 10.0238 24 11.9942 24Z" fill="white"/>
</svg>
