<svg width="24" height="24" viewBox="0 0 24 24" fill="none" xmlns="http://www.w3.org/2000/svg">
<path d="M12.8199 24C12.8963 23.9782 12.9619 23.9454 13.0382 23.9019L21.584 19.0341C22.5989 18.4557 23.1446 17.8663 23.1446 16.2838V7.78174C23.1446 7.45432 23.1228 7.19239 23.0573 6.95227L12.8199 12.8022V24ZM11.3247 24V12.8022L1.08731 6.95227C1.02183 7.19239 1 7.45432 1 7.78174V16.2838C1 17.8663 1.55662 18.4557 2.56071 19.0341L11.1174 23.9019C11.1828 23.9454 11.2483 23.9782 11.3247 24ZM12.0777 11.4925L16.738 8.85132L6.40246 2.94681L2.397 5.22785C2.15689 5.35882 1.96044 5.48979 1.78581 5.6535L12.0777 11.4925ZM18.2551 7.9891L22.3588 5.6535C22.1951 5.48979 21.9987 5.35882 21.7586 5.22785L14.0532 0.840398C13.3875 0.458405 12.7217 0.251038 12.0777 0.251038C11.4229 0.251038 10.7572 0.458405 10.0914 0.840398L7.87586 2.09551L18.2551 7.9891Z" fill="white" fill-opacity="0.85"/>
</svg>
