<svg width="16" height="16" viewBox="0 0 16 16" fill="none" xmlns="http://www.w3.org/2000/svg">
<path d="M10 1.18933L9.46933 1.71933C9.36445 1.82422 9.29302 1.95786 9.26408 2.10334C9.23514 2.24883 9.24999 2.39963 9.30676 2.53667C9.36352 2.67372 9.45965 2.79085 9.58299 2.87326C9.70633 2.95567 9.85133 2.99966 9.99967 2.99966C10.148 2.99966 10.293 2.95567 10.4163 2.87326C10.5397 2.79085 10.6358 2.67372 10.6926 2.53667C10.7493 2.39963 10.7642 2.24883 10.7353 2.10334C10.7063 1.95786 10.6349 1.82422 10.53 1.71933L10 1.18933ZM8 1.18933L7.46933 1.71933C7.36445 1.82422 7.29302 1.95786 7.26408 2.10334C7.23514 2.24883 7.24999 2.39963 7.30676 2.53667C7.36352 2.67372 7.45965 2.79085 7.58299 2.87326C7.70633 2.95567 7.85133 2.99966 7.99967 2.99966C8.148 2.99966 8.29301 2.95567 8.41634 2.87326C8.53968 2.79085 8.63581 2.67372 8.69258 2.53667C8.74934 2.39963 8.76419 2.24883 8.73526 2.10334C8.70632 1.95786 8.63489 1.82422 8.53 1.71933L8 1.18933ZM6 1.18933L5.46933 1.71933C5.36445 1.82422 5.29302 1.95786 5.26408 2.10334C5.23514 2.24883 5.24999 2.39963 5.30676 2.53667C5.36352 2.67372 5.45965 2.79085 5.58299 2.87326C5.70633 2.95567 5.85133 2.99966 5.99967 2.99966C6.148 2.99966 6.29301 2.95567 6.41634 2.87326C6.53968 2.79085 6.63581 2.67372 6.69258 2.53667C6.74934 2.39963 6.76419 2.24883 6.73526 2.10334C6.70632 1.95786 6.63489 1.82422 6.53 1.71933L6 1.18933ZM6.5 5.03133C6.832 5.01733 7.16533 5.008 7.5 5.00333V4.5C7.5 4.36739 7.55268 4.24021 7.64645 4.14644C7.74022 4.05268 7.86739 4 8 4C8.13261 4 8.25979 4.05268 8.35355 4.14644C8.44732 4.24021 8.5 4.36739 8.5 4.5V5.00333C8.83467 5.008 9.168 5.01733 9.5 5.03133V4.5C9.5 4.36739 9.55268 4.24021 9.64645 4.14644C9.74022 4.05268 9.86739 4 10 4C10.1326 4 10.2598 4.05268 10.3536 4.14644C10.4473 4.24021 10.5 4.36739 10.5 4.5V5.08666L10.7047 5.10133C11.738 5.17933 12.5 6.05266 12.5 7.06533V7.744C9.50889 7.41738 6.49111 7.41738 3.5 7.744V7.06533C3.5 6.05266 4.262 5.17933 5.29533 5.10133L5.5 5.08666V4.5C5.5 4.36739 5.55268 4.24021 5.64645 4.14644C5.74022 4.05268 5.86739 4 6 4C6.13261 4 6.25979 4.05268 6.35355 4.14644C6.44732 4.24021 6.5 4.36739 6.5 4.5V5.03133ZM8 8.5C6.352 8.5 4.73333 8.62266 3.15067 8.86C2.18133 9.00466 1.5 9.848 1.5 10.804V11.06C2.08555 10.9512 2.69061 11.0364 3.22333 11.3027C3.46448 11.4232 3.73039 11.486 4 11.486C4.26961 11.486 4.53552 11.4232 4.77667 11.3027C5.15651 11.1128 5.57534 11.0139 6 11.0139C6.42466 11.0139 6.84349 11.1128 7.22333 11.3027C7.46448 11.4232 7.73039 11.486 8 11.486C8.26961 11.486 8.53552 11.4232 8.77667 11.3027C9.15651 11.1128 9.57534 11.0139 10 11.0139C10.4247 11.0139 10.8435 11.1128 11.2233 11.3027C11.4645 11.4232 11.7304 11.486 12 11.486C12.2696 11.486 12.5355 11.4232 12.7767 11.3027C13.3094 11.0364 13.9145 10.9512 14.5 11.06V10.804C14.5 9.848 13.8187 9.004 12.8493 8.85933C11.244 8.61958 9.62311 8.49947 8 8.5ZM14.5 12.0873C14.076 11.9599 13.6193 11.9992 13.2233 12.1973C12.8435 12.3872 12.4247 12.4861 12 12.4861C11.5753 12.4861 11.1565 12.3872 10.7767 12.1973C10.5355 12.0768 10.2696 12.014 10 12.014C9.73039 12.014 9.46448 12.0768 9.22333 12.1973C8.84349 12.3872 8.42466 12.4861 8 12.4861C7.57534 12.4861 7.15651 12.3872 6.77667 12.1973C6.53552 12.0768 6.26961 12.014 6 12.014C5.73039 12.014 5.46448 12.0768 5.22333 12.1973C4.84349 12.3872 4.42466 12.4861 4 12.4861C3.57534 12.4861 3.15651 12.3872 2.77667 12.1973C2.38071 11.9992 1.92401 11.9599 1.5 12.0873V13.75C1.5 14.44 2.06 15 2.75 15H13.25C13.94 15 14.5 14.44 14.5 13.75V12.0873Z" fill="#C2C2C2"/>
</svg>
