<svg width="16" height="16" fill="none"><mask id="a" fill="#fff"><path d="M14.5 16h-13C.67 16 0 15.33 0 14.5v-12C0 1.67.67 1 1.5 1h13c.83 0 1.5.67 1.5 1.5v12c0 .83-.67 1.5-1.5 1.5M1.5 2c-.28 0-.5.22-.5.5v12c0 .28.22.5.5.5h13c.28 0 .5-.22.5-.5v-12c0-.28-.22-.5-.5-.5z"/></mask><path fill="#000" d="M14.5 16h-13C.67 16 0 15.33 0 14.5v-12C0 1.67.67 1 1.5 1h13c.83 0 1.5.67 1.5 1.5v12c0 .83-.67 1.5-1.5 1.5M1.5 2c-.28 0-.5.22-.5.5v12c0 .28.22.5.5.5h13c.28 0 .5-.22.5-.5v-12c0-.28-.22-.5-.5-.5z"/><path fill="#FC7416" d="M14.5 15h-13v2h13zm-13 0a.5.5 0 0 1-.5-.5h-2C-1 15.882.118 17 1.5 17zm-.5-.5v-12h-2v12zm0-12c0-.278.222-.5.5-.5V0A2.5 2.5 0 0 0-1 2.5zm.5-.5h13V0h-13zm13 0c.278 0 .5.222.5.5h2C17 1.118 15.882 0 14.5 0zm.5.5v12h2v-12zm0 12c0 .278-.222.5-.5.5v2c1.382 0 2.5-1.118 2.5-2.5zM1.5 1C.668 1 0 1.668 0 2.5h2c0 .272-.228.5-.5.5zM0 2.5v12h2v-12zm0 12c0 .832.668 1.5 1.5 1.5v-2c.272 0 .5.228.5.5zM1.5 16h13v-2h-13zm13 0c.832 0 1.5-.668 1.5-1.5h-2c0-.272.228-.5.5-.5zm1.5-1.5v-12h-2v12zm0-12c0-.832-.668-1.5-1.5-1.5v2a.505.505 0 0 1-.5-.5zM14.5 1h-13v2h13z" mask="url(#a)"/><mask id="b" fill="#fff"><path d="M4.5 4c-.28 0-.5-.22-.5-.5v-3c0-.28.22-.5.5-.5s.5.22.5.5v3c0 .28-.22.5-.5.5m7 0c-.28 0-.5-.22-.5-.5v-3c0-.28.22-.5.5-.5s.5.22.5.5v3c0 .28-.22.5-.5.5m4 2H.5C.22 6 0 5.78 0 5.5S.22 5 .5 5h15c.28 0 .5.22.5.5s-.22.5-.5.5"/></mask><path fill="#000" d="M4.5 4c-.28 0-.5-.22-.5-.5v-3c0-.28.22-.5.5-.5s.5.22.5.5v3c0 .28-.22.5-.5.5m7 0c-.28 0-.5-.22-.5-.5v-3c0-.28.22-.5.5-.5s.5.22.5.5v3c0 .28-.22.5-.5.5m4 2H.5C.22 6 0 5.78 0 5.5S.22 5 .5 5h15c.28 0 .5.22.5.5s-.22.5-.5.5"/><path fill="#FC7416" d="M4.5 3c.272 0 .5.228.5.5H3C3 4.332 3.668 5 4.5 5zm.5.5v-3H3v3zm0-3c0 .272-.228.5-.5.5v-2C3.668-1 3-.332 3 .5zm-.5.5A.505.505 0 0 1 4 .5h2C6-.332 5.332-1 4.5-1zM4 .5v3h2v-3zm0 3c0-.272.228-.5.5-.5v2C5.332 5 6 4.332 6 3.5zm7.5-.5c.272 0 .5.228.5.5h-2c0 .832.668 1.5 1.5 1.5zm.5.5v-3h-2v3zm0-3c0 .272-.228.5-.5.5v-2C10.668-1 10-.332 10 .5zm-.5.5a.505.505 0 0 1-.5-.5h2c0-.832-.668-1.5-1.5-1.5zM11 .5v3h2v-3zm0 3c0-.272.228-.5.5-.5v2c.832 0 1.5-.668 1.5-1.5zM15.5 5H.5v2h15zM.5 5c.272 0 .5.228.5.5h-2C-1 6.332-.332 7 .5 7zm.5.5c0 .272-.228.5-.5.5V4C-.332 4-1 4.668-1 5.5zM.5 6h15V4H.5zm15 0a.505.505 0 0 1-.5-.5h2c0-.832-.668-1.5-1.5-1.5zm-.5-.5c0-.272.228-.5.5-.5v2c.832 0 1.5-.668 1.5-1.5z" mask="url(#b)"/><path fill="#000" stroke="#FC7416" d="M4.5 9a.5.5 0 1 1-1 0 .5.5 0 0 1 1 0ZM8.5 9a.5.5 0 1 1-1 0 .5.5 0 0 1 1 0ZM12.5 9a.5.5 0 1 1-1 0 .5.5 0 0 1 1 0ZM4.5 12a.5.5 0 1 1-1 0 .5.5 0 0 1 1 0ZM8.5 12a.5.5 0 1 1-1 0 .5.5 0 0 1 1 0ZM12.5 12a.5.5 0 1 1-1 0 .5.5 0 0 1 1 0Z"/></svg>