<svg width="22" height="22" viewBox="0 0 22 22" fill="none" xmlns="http://www.w3.org/2000/svg">
<path fill-rule="evenodd" clip-rule="evenodd" d="M3.38057 8.22602C3.47338 8.16422 3.56956 8.1095 3.66836 8.06188C3.78268 4.48514 7.15327 1.83301 10.9987 1.83301C14.8441 1.83301 18.2147 4.48514 18.329 8.06189C18.4278 8.1095 18.524 8.16422 18.6168 8.22602L20.1377 9.23857C20.5845 9.53603 20.8529 10.0372 20.8529 10.5739V13.2587C20.8529 13.7954 20.5845 14.2966 20.1377 14.5939L18.6168 15.6066C18.525 15.6677 18.4297 15.722 18.332 15.7693V17.4163C18.332 18.9352 17.1009 20.1663 15.582 20.1663H10.9987C10.4924 20.1663 10.082 19.7559 10.082 19.2497C10.082 18.7434 10.4924 18.333 10.9987 18.333H15.582C16.0883 18.333 16.4987 17.9226 16.4987 17.4163V15.8737C16.4037 15.8405 16.3102 15.801 16.2188 15.7553C15.4072 15.3497 14.8945 14.5203 14.8945 13.613V10.2196C14.8945 9.31227 15.4072 8.48286 16.2188 8.07724C16.3067 8.03333 16.3965 7.99518 16.4877 7.96277C16.3116 5.67518 14.0471 3.66634 10.9987 3.66634C7.95033 3.66634 5.68581 5.67518 5.50973 7.96277C5.60092 7.99518 5.6907 8.03333 5.77857 8.07724C6.59016 8.48286 7.10286 9.31227 7.10286 10.2196V13.613C7.10286 14.5203 6.59016 15.3497 5.77857 15.7553C5.01037 16.1392 4.09542 16.0825 3.38057 15.6066L1.85968 14.5939C1.41293 14.2966 1.14453 13.7954 1.14453 13.2587V10.5739C1.14453 10.0372 1.41293 9.53603 1.85968 9.23857L3.38057 8.22602Z" fill="black"/>
</svg>
