<svg width="22" height="22" fill="none"><g stroke="#000" stroke-linecap="round" stroke-linejoin="round" stroke-width="1.5" clip-path="url(#a)"><path d="M3.667 12.833v-2.75a7.333 7.333 0 0 1 14.666 0v2.75M16.5 17.418c0 1.519-2.462 2.75-5.5 2.75"/><path d="M3.667 12.833A1.833 1.833 0 0 1 5.5 11h.917a1.833 1.833 0 0 1 1.833 1.833v2.75a1.833 1.833 0 0 1-1.833 1.834H5.5a1.833 1.833 0 0 1-1.833-1.834zM13.75 12.833A1.833 1.833 0 0 1 15.583 11h.917a1.834 1.834 0 0 1 1.833 1.833v2.75a1.833 1.833 0 0 1-1.833 1.834h-.917a1.833 1.833 0 0 1-1.833-1.834z"/></g><defs><clipPath id="a"><path fill="#fff" d="M0 0h22v22H0z"/></clipPath></defs></svg>