<svg width="24" height="24" fill="none"><g stroke-linecap="round" stroke-linejoin="round" stroke-width="2" clip-path="url(#a)"><path stroke="url(#b)" d="M13 5h8"/><path stroke="url(#c)" d="M13 9h5"/><path stroke="url(#d)" d="M13 15h8"/><path stroke="url(#e)" d="M13 19h5"/><path stroke="url(#f)" d="M3 5a1 1 0 0 1 1-1h4a1 1 0 0 1 1 1v4a1 1 0 0 1-1 1H4a1 1 0 0 1-1-1z"/><path stroke="url(#g)" d="M3 15a1 1 0 0 1 1-1h4a1 1 0 0 1 1 1v4a1 1 0 0 1-1 1H4a1 1 0 0 1-1-1z"/></g><defs><linearGradient id="b" x1="13" x2="21.73" y1="5.11" y2="4.46" gradientUnits="userSpaceOnUse"><stop stop-color="#FC7416"/><stop offset=".24" stop-color="#FC7416"/><stop offset=".62"/><stop offset="1"/></linearGradient><linearGradient id="c" x1="13" x2="18.47" y1="9.11" y2="8.86" gradientUnits="userSpaceOnUse"><stop stop-color="#FC7416"/><stop offset=".24" stop-color="#FC7416"/><stop offset=".62"/><stop offset="1"/></linearGradient><linearGradient id="d" x1="13" x2="21.73" y1="15.11" y2="14.46" gradientUnits="userSpaceOnUse"><stop stop-color="#FC7416"/><stop offset=".24" stop-color="#FC7416"/><stop offset=".62"/><stop offset="1"/></linearGradient><linearGradient id="e" x1="13" x2="18.47" y1="19.11" y2="18.86" gradientUnits="userSpaceOnUse"><stop stop-color="#FC7416"/><stop offset=".24" stop-color="#FC7416"/><stop offset=".62"/><stop offset="1"/></linearGradient><linearGradient id="f" x1="3" x2="9.58" y1="4.67" y2="4.61" gradientUnits="userSpaceOnUse"><stop stop-color="#FC7416"/><stop offset=".24" stop-color="#FC7416"/><stop offset=".62"/><stop offset="1"/></linearGradient><linearGradient id="g" x1="3" x2="9.58" y1="14.67" y2="14.61" gradientUnits="userSpaceOnUse"><stop stop-color="#FC7416"/><stop offset=".24" stop-color="#FC7416"/><stop offset=".62"/><stop offset="1"/></linearGradient><clipPath id="a"><path fill="#fff" d="M0 0h24v24H0z"/></clipPath></defs></svg>