<svg width="16" height="16" viewBox="0 0 16 16" fill="none" xmlns="http://www.w3.org/2000/svg">
<path d="M4.66669 6.44467C4.66669 5.97312 4.85401 5.52088 5.18745 5.18744C5.52089 4.854 5.97313 4.66667 6.44469 4.66667H12.222C12.4555 4.66667 12.6867 4.71266 12.9024 4.80201C13.1181 4.89137 13.3142 5.02233 13.4793 5.18744C13.6444 5.35254 13.7753 5.54854 13.8647 5.76426C13.954 5.97998 14 6.21118 14 6.44467V12.222C14 12.4555 13.954 12.6867 13.8647 12.9024C13.7753 13.1181 13.6444 13.3141 13.4793 13.4792C13.3142 13.6443 13.1181 13.7753 12.9024 13.8647C12.6867 13.954 12.4555 14 12.222 14H6.44469C6.2112 14 5.97999 13.954 5.76428 13.8647C5.54856 13.7753 5.35255 13.6443 5.18745 13.4792C5.02235 13.3141 4.89138 13.1181 4.80203 12.9024C4.71268 12.6867 4.66669 12.4555 4.66669 12.222V6.44467Z" stroke="#2986FF" stroke-width="1.33333" stroke-linecap="round" stroke-linejoin="round"/>
<path d="M2.67467 11.158C2.47023 11.0415 2.30018 10.873 2.18172 10.6697C2.06325 10.4663 2.00057 10.2353 2 10V3.33333C2 2.6 2.6 2 3.33333 2H10C10.5 2 10.772 2.25667 11 2.66667" stroke="#2986FF" stroke-width="1.33333" stroke-linecap="round" stroke-linejoin="round"/>
</svg>
