<svg width="16" height="16" viewBox="0 0 16 16" fill="none" xmlns="http://www.w3.org/2000/svg">
<path d="M12.0001 1.07191C13.2068 1.7686 14.2105 2.76833 14.912 3.97215C15.6135 5.17597 15.9885 6.54213 15.9997 7.93538C16.011 9.32864 15.6582 10.7007 14.9762 11.9157C14.2942 13.1307 13.3068 14.1465 12.1115 14.8626C10.9163 15.5787 9.55481 15.9702 8.16178 15.9984C6.76875 16.0266 5.39251 15.6904 4.16929 15.0233C2.94608 14.3562 1.91832 13.3811 1.18775 12.1947C0.457175 11.0083 0.049128 9.65168 0.00400014 8.25911L0 7.99991L0.00400014 7.74071C0.0488032 6.35911 0.450844 5.01268 1.17093 3.83271C1.89101 2.65273 2.90456 1.67948 4.11276 1.00782C5.32097 0.336164 6.6826 -0.0109686 8.0649 0.000264197C9.44721 0.011497 10.803 0.380712 12.0001 1.07191ZM6.80888 5.71191C6.64127 5.61214 6.44297 5.57704 6.25128 5.61322C6.0596 5.6494 5.88774 5.75437 5.76803 5.90838C5.64832 6.06239 5.589 6.25483 5.60124 6.44952C5.61347 6.6442 5.69642 6.8277 5.83447 6.96551L6.86808 7.99991L5.83447 9.03431L5.76807 9.10951C5.64374 9.27031 5.58527 9.47239 5.60455 9.67473C5.62383 9.87707 5.7194 10.0645 5.87185 10.1989C6.0243 10.3333 6.22221 10.4047 6.42537 10.3985C6.62853 10.3923 6.82172 10.309 6.96569 10.1655L8.0001 9.13191L9.03451 10.1655L9.10971 10.2319C9.27051 10.3562 9.4726 10.4147 9.67494 10.3954C9.87728 10.3762 10.0647 10.2806 10.1991 10.1281C10.3336 9.97568 10.4049 9.77778 10.3987 9.57462C10.3925 9.37146 10.3092 9.17828 10.1657 9.03431L9.13211 7.99991L10.1657 6.96551L10.2321 6.89031C10.3565 6.72952 10.4149 6.52743 10.3956 6.32509C10.3764 6.12275 10.2808 5.93534 10.1283 5.80091C9.97589 5.66648 9.77799 5.59513 9.57483 5.60133C9.37166 5.60753 9.17848 5.69083 9.03451 5.83431L8.0001 6.86791L6.96569 5.83431L6.89048 5.76791L6.80888 5.71191Z" fill="white"/>
</svg>
