<svg width="16" height="16" fill="none"><path fill="#FC7416" fill-rule="evenodd" d="m8.472 15.593-.009.002-.056.025-.016.003-.011-.003-.056-.025q-.013-.005-.02.003l-.003.007-.013.314.004.014.008.01.082.054.012.003.01-.003.083-.054.01-.012.002-.012-.013-.313q-.003-.012-.014-.013m.211-.083-.01.002-.147.068-.008.007-.003.008.014.315.004.009.007.005.16.068q.014.003.023-.006l.003-.01-.027-.45q-.004-.012-.016-.016m-.569.002-.011-.002a.02.02 0 0 0-.01.006l-.005.01-.027.45q0 .012.014.017l.011-.001.16-.068.008-.006.003-.008.014-.315-.002-.009-.008-.007zM10.064.699A3.35 3.35 0 0 0 8 0c-.756 0-1.488.248-2.063.699l-.3.234c-.254.2-.57.32-.905.345l-.392.03a3.3 3.3 0 0 0-1.997.847 2.83 2.83 0 0 0-.922 1.837l-.03.36a1.4 1.4 0 0 1-.375.833L.76 5.46A2.8 2.8 0 0 0 0 7.358c0 .696.27 1.369.76 1.898l.255.275c.217.234.349.526.375.833l.032.36a2.83 2.83 0 0 0 .922 1.837 3.3 3.3 0 0 0 1.996.848l.392.028c.334.025.65.146.906.345l.299.234c.575.451 1.307.7 2.064.7a3.35 3.35 0 0 0 2.064-.7l.299-.234c.254-.2.571-.32.905-.344l.392-.03a3.3 3.3 0 0 0 1.997-.847 2.83 2.83 0 0 0 .922-1.837l.03-.36c.027-.307.158-.599.376-.833l.254-.276c.49-.529.76-1.202.76-1.897a2.8 2.8 0 0 0-.76-1.898l-.255-.275a1.4 1.4 0 0 1-.375-.833l-.031-.36a2.83 2.83 0 0 0-.921-1.837 3.3 3.3 0 0 0-1.997-.848l-.392-.029a1.67 1.67 0 0 1-.905-.344zM6.969 1.813c.288-.225.653-.35 1.032-.35.378 0 .743.125 1.031.35l.3.235c.51.4 1.143.64 1.81.69l.392.029c.377.028.73.178.998.424s.43.571.461.918l.032.36c.053.614.316 1.197.75 1.665l.254.276c.246.265.38.601.38.949 0 .347-.134.684-.38.948l-.254.276a2.8 2.8 0 0 0-.75 1.665l-.032.36c-.03.347-.194.673-.46.918a1.65 1.65 0 0 1-.999.424l-.392.03c-.667.049-1.3.29-1.81.69l-.3.233c-.288.226-.653.35-1.031.35-.379 0-.744-.124-1.032-.35l-.3-.234c-.51-.399-1.143-.64-1.81-.69l-.392-.029a1.65 1.65 0 0 1-.999-.423 1.42 1.42 0 0 1-.46-.918l-.033-.36a2.8 2.8 0 0 0-.749-1.666l-.254-.276a1.4 1.4 0 0 1-.38-.948c0-.348.135-.684.38-.95l.254-.275a2.8 2.8 0 0 0 .75-1.665l.032-.36c.03-.347.193-.673.46-.919.268-.246.622-.396.999-.424l.392-.028c.667-.05 1.3-.29 1.81-.69zm3.98 3.868a.7.7 0 0 0 .178-.237.68.68 0 0 0-.168-.806.8.8 0 0 0-.261-.16.86.86 0 0 0-.616.005.8.8 0 0 0-.258.164L5.052 9.036a.7.7 0 0 0-.178.237.68.68 0 0 0 .168.806.8.8 0 0 0 .262.16.86.86 0 0 0 .615-.005.8.8 0 0 0 .258-.164zM7.205 5.53c0 .291-.125.57-.35.776a1.25 1.25 0 0 1-.843.321c-.316 0-.62-.115-.843-.321a1.06 1.06 0 0 1-.35-.776c0-.29.126-.57.35-.776.223-.205.527-.321.843-.321.317 0 .62.116.844.321s.35.485.35.776m2.784 4.755c.316 0 .62-.116.844-.321s.349-.485.349-.776-.126-.57-.35-.776a1.25 1.25 0 0 0-.843-.322c-.316 0-.62.116-.844.322s-.35.485-.35.776c0 .29.127.57.35.776.224.205.528.321.844.321" clip-rule="evenodd"/></svg>