<svg width="24" height="24" fill="none"><path fill="#B4ADAD" d="M16.47 2H7.53A5.53 5.53 0 0 0 2 7.53v8.94A5.53 5.53 0 0 0 7.53 22h8.94A5.53 5.53 0 0 0 22 16.47V7.53A5.53 5.53 0 0 0 16.47 2" opacity=".3"/><path fill="#B4ADAD" d="M8.5 10.13a1.88 1.88 0 1 0 0-3.76 1.88 1.88 0 0 0 0 3.76M15.44 10.13a1.88 1.88 0 1 0 0-3.76 1.88 1.88 0 0 0 0 3.76"/><path fill="#B4ADAD" fill-rule="evenodd" d="M8 17.75a.75.75 0 0 0 .75-.75 3.25 3.25 0 0 1 3.24-3.25 3.24 3.24 0 0 1 3.012 2.003c.164.395.248.819.248 1.247a.75.75 0 0 0 1.5 0 4.755 4.755 0 0 0-2.943-4.394 4.7 4.7 0 0 0-1.822-.356A4.744 4.744 0 0 0 7.25 17c0 .414.336.75.75.75" clip-rule="evenodd"/></svg>