<svg width="62" height="62" viewBox="0 0 62 62" fill="none" xmlns="http://www.w3.org/2000/svg">
<g clip-path="url(#clip0_2306_3772)">
<path d="M57.6203 61.2618C58.3166 61.2614 59.0027 61.0948 59.6209 60.776C60.2391 60.4572 60.7712 59.9954 61.1727 59.4295C61.5741 58.8637 61.833 58.2103 61.9278 57.5242C62.0225 56.8381 61.9502 56.1395 61.7169 55.487L54.8693 36.3717C54.5681 35.5311 54.0127 34.8037 53.2794 34.2892C52.5461 33.7747 51.6708 33.4984 50.7733 33.498H41.288C38.3418 38.3042 34.8932 42.7873 30.9997 46.8728C27.0005 42.8348 23.4893 38.3462 20.5374 33.498H11.2261C10.3287 33.4984 9.45332 33.7747 8.72002 34.2892C7.98672 34.8037 7.43137 35.5311 7.13009 36.3717L0.282485 55.487C0.0492576 56.1395 -0.0230387 56.8381 0.0716744 57.5242C0.166387 58.2103 0.425342 58.8637 0.826768 59.4295C1.22819 59.9954 1.76036 60.4572 2.37853 60.776C2.9967 61.0948 3.68281 61.2614 4.37917 61.2618H57.6203Z" fill="url(#paint0_linear_2306_3772)"/>
<path d="M31.0007 46.8725C34.8942 42.787 38.3428 38.3038 41.289 33.4977C44.4363 28.2791 47.0809 22.1678 47.0809 16.3848C47.0809 12.1439 45.3868 8.07672 42.3713 5.07797C39.3558 2.07921 35.2659 0.394531 31.0014 0.394531C26.7368 0.394531 22.6469 2.07921 19.6314 5.07797C16.616 8.07672 14.9219 12.1439 14.9219 16.3848C14.9219 22.3326 17.4719 28.3752 20.539 33.4977C23.4907 38.3458 27.0017 42.8345 31.0007 46.8725Z" fill="url(#paint1_linear_2306_3772)"/>
<path d="M30.9994 44C34.3894 40.396 37.392 36.4413 39.9572 32.2016C42.6974 27.5981 45 22.2071 45 17.1056C45 13.3646 43.525 9.77676 40.8995 7.13144C38.274 4.48612 34.713 3 31 3C27.287 3 23.726 4.48612 21.1005 7.13144C18.475 9.77676 17 13.3646 17 17.1056C17 22.3524 19.2202 27.6829 21.8907 32.2016C24.4607 36.4783 27.5176 40.4379 30.9994 44Z" fill="#F9F9F9"/>
<path d="M31 23C34.3137 23 37 20.3137 37 17C37 13.6863 34.3137 11 31 11C27.6863 11 25 13.6863 25 17C25 20.3137 27.6863 23 31 23Z" fill="#FC7416"/>
<path d="M61.7196 55.4857L56.882 41.9805L3.60156 61.1843C3.85883 61.2329 4.11996 61.2584 4.38182 61.2605H57.6229C58.3193 61.2602 59.0054 61.0936 59.6235 60.7747C60.2417 60.4559 60.7739 59.9941 61.1753 59.4283C61.5767 58.8624 61.8357 58.209 61.9304 57.5229C62.0251 56.8369 61.9528 56.1382 61.7196 55.4857Z" fill="#F9F9F9"/>
<path d="M61.7194 55.4857L56.8819 41.9805L41.5039 47.5232L48.7403 61.2605H57.6228C58.3191 61.2602 59.0052 61.0936 59.6234 60.7747C60.2416 60.4559 60.7737 59.9941 61.1752 59.4283C61.5766 58.8624 61.8355 58.209 61.9303 57.5229C62.025 56.8369 61.9527 56.1382 61.7194 55.4857Z" fill="#D8D9DA"/>
<path d="M3.599 61.1855L23.7828 53.9103L6.80564 37.2773L0.282563 55.4869C0.0715208 56.0769 -0.00805748 56.7054 0.0493393 57.329C0.106736 57.9526 0.299737 58.5563 0.614976 59.0984C0.930216 59.6405 1.36016 60.1079 1.87505 60.4684C2.38993 60.8289 2.97745 61.0738 3.59692 61.1862L3.599 61.1855Z" fill="#D8D9DA"/>
</g>
<defs>
<linearGradient id="paint0_linear_2306_3772" x1="30.9996" y1="33.498" x2="30.9996" y2="61.2618" gradientUnits="userSpaceOnUse">
<stop stop-color="#EEF0F4"/>
<stop offset="0.927" stop-color="#E4E4E4"/>
</linearGradient>
<linearGradient id="paint1_linear_2306_3772" x1="31.0013" y1="0.394531" x2="31.0013" y2="46.8725" gradientUnits="userSpaceOnUse">
<stop stop-color="#EEF0F4"/>
<stop offset="0.927" stop-color="#E4E4E4"/>
</linearGradient>
<clipPath id="clip0_2306_3772">
<rect width="62" height="62" fill="white"/>
</clipPath>
</defs>
</svg>
