<svg width="16" height="16" fill="none"><mask id="a" width="16" height="16" x="0" y="0" maskUnits="userSpaceOnUse" style="mask-type:luminance"><path fill="#fff" stroke="#fff" stroke-width=".7" d="M15.65 15.65V.35H.35v15.3z"/></mask><g stroke="#FC7416" stroke-linecap="round" stroke-linejoin="round" stroke-miterlimit="10" stroke-width=".7" mask="url(#a)"><path d="M5.12 3.145a5.66 5.66 0 0 1 4.615-.52M2.633 9.746a5.66 5.66 0 0 1 .512-4.626M13.374 6.253a5.65 5.65 0 0 1-1.379 5.739 5.65 5.65 0 0 1-5.737 1.378"/><path d="m14.581 5.053.611.316c.482.249.646.859.353 1.315l-.525.819a.92.92 0 0 0 0 .994l.525.819a.92.92 0 0 1-.353 1.316l-.863.446a.92.92 0 0 0-.498.861l.046.971a.92.92 0 0 1-.964.963l-.97-.045a.92.92 0 0 0-.862.498l-.446.863a.92.92 0 0 1-1.316.353l-.818-.525a.92.92 0 0 0-.995 0l-.818.525a.92.92 0 0 1-1.316-.353l-.317-.612M1.433 10.951l-.619-.32a.92.92 0 0 1-.352-1.315l.524-.819a.92.92 0 0 0 0-.994l-.524-.818a.92.92 0 0 1 .352-1.316l.864-.447a.92.92 0 0 0 .497-.861L2.13 3.09a.92.92 0 0 1 .963-.963l.971.045a.92.92 0 0 0 .861-.498l.447-.863A.92.92 0 0 1 6.688.458l.818.525a.92.92 0 0 0 .995 0l.818-.525a.92.92 0 0 1 1.316.353l.32.618M11.684.72.723 11.68a1.39 1.39 0 0 0 0 1.966l1.634 1.635a1.39 1.39 0 0 0 1.965 0L15.284 4.319a1.39 1.39 0 0 0 0-1.965L13.649.72a1.39 1.39 0 0 0-1.965 0"/><path d="m5.731 8.504 1.767 1.767c.017-.011.442-.442.442-.442M2.007 12.228l-.526.526 1.768 1.768.526-.526M2.852 13.15l-.487.488M12.757 1.478l-.526.526L14 3.77l.526-.525M13.602 2.4l-.486.488M6.551 10.52a.695.695 0 0 1-1.103.82l-.785-.785a.695.695 0 0 1 .822-1.102M2.765 11.47l2.75.786M3.678 10.558l.784 2.752M6.696 7.54l1.327 1.328c.166.165.359.194.587.144a.72.72 0 0 0 .514-.472c.081-.244.06-.472-.121-.654L7.676 6.56M9.558 5.04s-.584.05-.845.538c-.24.447.108.89.518.804 0 0 .353-.135.723-.306.891-.41 1.24.5.717 1.024a1.18 1.18 0 0 1-.878.354M10.05 4.185l1.768 1.768M10.627 3.608l2.245 1.238c.046.025.088-.017.062-.063l-1.257-2.218"/></g></svg>