<svg width="24" height="24" fill="none"><path fill="#B4ADAD" d="M15.92 22.75h-4.43a4.81 4.81 0 0 1-4.95-4.64.76.76 0 1 1 1.52 0 3.29 3.29 0 0 0 3.43 3.12h4.43a3.29 3.29 0 0 0 3.43-3.12V5.89a3.29 3.29 0 0 0-3.43-3.12h-4.43a3.29 3.29 0 0 0-3.43 3.12.76.76 0 1 1-1.52 0 4.81 4.81 0 0 1 5-4.64h4.43a4.81 4.81 0 0 1 5 4.64v12.22a4.81 4.81 0 0 1-5.05 4.64m-1.75-11.51H4.11l1.67-1.67a.78.78 0 0 0 0-1.08.76.76 0 0 0-1.08 0l-3 3a.76.76 0 0 0 0 1.08l3 3a.75.75 0 0 0 .54.22.76.76 0 0 0 .54-.22.78.78 0 0 0 0-1.08l-1.67-1.73h10.06a.76.76 0 0 0 0-1.52"/></svg>