<svg width="24" height="24" fill="none"><path fill="#B4ADAD" d="M14.1 12.61q.015-.165 0-.33a.76.76 0 0 1 1.187-.731.73.73 0 0 1 .293.49q.023.286 0 .57a3.6 3.6 0 0 1-3.6 3.6h-.4a.75.75 0 0 1-.66-.83.74.74 0 0 1 .82-.66 2.12 2.12 0 0 0 2.36-2.11m6.59-4.83a.762.762 0 0 0-1.15 1 6.4 6.4 0 0 1 1.71 3.87c0 3.41-4.49 7.81-9.25 7.81a8.54 8.54 0 0 1-3.7-1 .749.749 0 0 0-.916 1.165.8.8 0 0 0 .246.175A10 10 0 0 0 12 21.92c5.22 0 10.75-4.78 10.75-9.31a7.84 7.84 0 0 0-2.06-4.83m1-4.33L3.4 21.62a.74.74 0 0 1-.52.22.8.8 0 0 1-.54-.22.76.76 0 0 1 0-1.07l2-2c-2-1.84-3.13-4-3.13-5.92C1.25 8.17 6.88 3.3 12 3.3a10.8 10.8 0 0 1 5.76 1.9l2.84-2.82a.75.75 0 1 1 1 1.07zm-16.21 14 3.33-3.31a3.57 3.57 0 0 1 4.79-4.78l3.12-3.1A9.2 9.2 0 0 0 12 4.8c-4.23 0-9.25 4.2-9.25 7.81 0 1.49 1.02 3.31 2.69 4.86zM9.94 13l2.45-2.45q-.195-.015-.39 0a2.1 2.1 0 0 0-2.1 2.1q.002.177.04.35"/></svg>