<svg width="18" height="18" fill="none"><path stroke="#000" stroke-linecap="round" stroke-linejoin="round" stroke-width="1.6" d="M2.25 5.25H4.5M2.25 12.75h4.5M13.5 12.75h2.25M11.25 5.25h4.5"/><path stroke="#000" stroke-width="1.6" d="M4.5 5.25c0-.699 0-1.048.114-1.324a1.5 1.5 0 0 1 .812-.812C5.702 3 6.051 3 6.75 3s1.048 0 1.324.114a1.5 1.5 0 0 1 .812.812C9 4.202 9 4.551 9 5.25s0 1.048-.114 1.324a1.5 1.5 0 0 1-.812.812c-.276.114-.625.114-1.324.114s-1.048 0-1.324-.114a1.5 1.5 0 0 1-.812-.812C4.5 6.298 4.5 5.949 4.5 5.25ZM9 12.75c0-.699 0-1.048.114-1.324a1.5 1.5 0 0 1 .812-.812c.276-.114.625-.114 1.324-.114s1.048 0 1.324.114a1.5 1.5 0 0 1 .812.812c.114.276.114.625.114 1.324s0 1.048-.114 1.324a1.5 1.5 0 0 1-.812.812c-.276.114-.625.114-1.324.114s-1.048 0-1.324-.114a1.5 1.5 0 0 1-.812-.812C9 13.798 9 13.449 9 12.75Z"/></svg>