<svg width="20" height="20" fill="none"><g clip-path="url(#a)"><path fill="#F0F0F0" d="M.472 6.956A10 10 0 0 0 0 10a10 10 0 0 0 .472 3.043l9.528.435 9.528-.435c.306-.96.472-1.982.472-3.043a10 10 0 0 0-.472-3.044L10 6.521z"/><path fill="#D80027" d="M19.527 6.956 10 6.521l-9.528.435a10 10 0 0 0-.235.87h19.525a10 10 0 0 0-.235-.87M.237 12.174q.099.443.235.87l9.527.434 9.528-.435a10 10 0 0 0 .235-.87z"/><path fill="#6DA544" d="M10 20c4.462 0 8.24-2.922 9.528-6.957H.473C1.76 17.078 5.539 20 10 20"/><path fill="#338AF3" d="M10 0C5.54 0 1.76 2.922.473 6.957h19.055C18.241 2.922 14.462 0 10 0"/><path fill="#F0F0F0" d="M4.57 4.13c0-.936.658-1.719 1.537-1.91a1.957 1.957 0 1 0 0 3.822A1.96 1.96 0 0 1 4.57 4.13M7.263 5.02l.133.407h.428l-.346.252.132.408-.347-.252-.347.252.133-.408-.347-.252h.429zM8.631 5.02l.133.407h.428l-.346.252.132.408-.347-.252-.346.252.132-.408-.347-.252H8.5zM10 5.02l.132.407h.429l-.347.252.132.408L10 5.835l-.347.252.132-.408-.347-.252h.43zM11.368 5.02l.132.407h.429l-.347.252.132.408-.346-.252-.347.252.132-.408-.346-.252h.428zM12.736 5.02l.132.407h.429l-.347.252.133.408-.347-.252-.347.252.133-.408-.347-.252h.428zM8.631 3.597l.133.407h.428l-.346.252.132.408-.347-.252-.346.252.132-.408-.347-.252H8.5zM10 3.597l.132.407h.429l-.347.252.132.408L10 4.412l-.347.252.132-.408-.347-.252h.43zM11.368 3.597l.132.407h.429l-.347.252.132.408-.346-.252-.347.252.132-.408-.346-.252h.428zM12.736 3.597l.132.407h.429l-.347.252.133.408-.347-.252-.347.252.133-.408-.347-.252h.428zM10 2.174l.132.407h.429l-.347.252.132.408L10 2.989l-.347.252.132-.408-.347-.252h.43zM11.368 2.174l.132.407h.429l-.347.252.132.408-.346-.252-.347.252.132-.408-.346-.252h.428zM12.736 2.174l.132.407h.429l-.347.252.133.408-.347-.252-.347.252.133-.408-.347-.252h.428z"/></g><defs><clipPath id="a"><path fill="#fff" d="M0 0h20v20H0z"/></clipPath></defs></svg>