<svg width="16" height="16" viewBox="0 0 16 16" fill="none" xmlns="http://www.w3.org/2000/svg">
<g clip-path="url(#clip0_2886_3400)">
<path d="M1.43702 15.9959C1.77648 15.9959 2.05129 15.7269 2.05129 15.3846V10.8527C2.25335 10.7631 3.0131 10.4696 4.20122 10.4696C7.1917 10.4696 9.06687 11.9449 11.9119 11.9449C13.1727 11.9449 13.6415 11.8064 14.2558 11.5292C14.8135 11.2766 15.1771 10.8527 15.1771 10.1028V1.82981C15.1771 1.38967 14.8054 1.13698 14.3366 1.13698C13.9406 1.13698 13.197 1.47932 11.8068 1.47932C8.96176 1.47932 7.09473 0.00402832 4.09614 0.00402832C2.83528 0.00402832 2.35842 0.142592 1.74415 0.419719C1.18646 0.672393 0.822754 1.09623 0.822754 1.83796V15.3846C0.822754 15.7188 1.10564 15.9959 1.43702 15.9959Z" fill="white"/>
</g>
<defs>
<clipPath id="clip0_2886_3400">
<rect width="16" height="16" fill="white"/>
</clipPath>
</defs>
</svg>
