<svg width="24" height="24" fill="none"><g stroke-linecap="round" stroke-linejoin="round" stroke-width="2" clip-path="url(#a)"><path stroke="url(#b)" d="M3 9a1 1 0 0 1 1-1h16a1 1 0 0 1 1 1v2a1 1 0 0 1-1 1H4a1 1 0 0 1-1-1z"/><path stroke="url(#c)" d="M12 7v14"/><path stroke="url(#d)" d="M19 12v7a2 2 0 0 1-2 2H7a2 2 0 0 1-2-2v-7"/><path stroke="url(#e)" d="M7.5 8a2.5 2.5 0 1 1 0-5c.965-.016 1.91.452 2.713 1.344C11.015 5.235 11.638 6.51 12 8c.362-1.49.985-2.764 1.787-3.656.803-.892 1.748-1.36 2.713-1.344a2.5 2.5 0 0 1 0 5"/></g><defs><linearGradient id="b" x1="3" x2="22.71" y1="8.44" y2="7.62" gradientUnits="userSpaceOnUse"><stop stop-color="#FC7416"/><stop offset=".24" stop-color="#FC7416"/><stop offset=".62"/><stop offset="1"/></linearGradient><linearGradient id="c" x1="12" x2="13.1" y1="8.56" y2="8.55" gradientUnits="userSpaceOnUse"><stop stop-color="#FC7416"/><stop offset=".24" stop-color="#FC7416"/><stop offset=".62"/><stop offset="1"/></linearGradient><linearGradient id="d" x1="5" x2="20.36" y1="13" y2="12.78" gradientUnits="userSpaceOnUse"><stop stop-color="#FC7416"/><stop offset=".24" stop-color="#FC7416"/><stop offset=".62"/><stop offset="1"/></linearGradient><linearGradient id="e" x1="5" x2="20.35" y1="3.56" y2="3.16" gradientUnits="userSpaceOnUse"><stop stop-color="#FC7416"/><stop offset=".24" stop-color="#FC7416"/><stop offset=".62"/><stop offset="1"/></linearGradient><clipPath id="a"><path fill="#fff" d="M0 0h24v24H0z"/></clipPath></defs></svg>