<svg width="22" height="22" viewBox="0 0 22 22" fill="none" xmlns="http://www.w3.org/2000/svg">
<path fill-rule="evenodd" clip-rule="evenodd" d="M1.14453 10.169C1.53178 5.94747 4.54259 2.49003 8.52287 1.45938C8.46188 1.58542 8.40066 1.71508 8.33947 1.84832C7.41263 3.8661 6.47776 6.72812 6.39985 10.1689L1.14453 10.169ZM1.14458 12.0198C1.54954 16.4318 4.82028 20.0092 9.06836 20.8536C8.83577 20.4357 8.58749 19.9543 8.33947 19.4143C7.4971 17.5804 6.64811 15.0492 6.44186 12.0198H1.14458ZM8.28925 12.0198C8.49042 14.6326 9.2287 16.8333 9.9734 18.4545C10.3369 19.246 10.6999 19.8945 10.9976 20.3791C11.2953 19.8945 11.6582 19.246 12.0219 18.4545C12.7665 16.8333 13.5048 14.6326 13.706 12.0198H8.28925ZM15.5533 12.0198C15.3471 15.0492 14.4982 17.5804 13.6557 19.4143C13.4076 19.9545 13.1593 20.436 12.9265 20.8541C17.1758 20.0107 20.4478 16.4328 20.8529 12.0198H15.5533ZM20.8529 10.169H15.5953C15.5174 6.72813 14.5826 3.8661 13.6557 1.84832C13.5944 1.71485 13.5331 1.58496 13.472 1.45872C17.4536 2.48854 20.4656 5.94658 20.8529 10.169ZM13.7535 10.169L8.24174 10.1689C8.31913 7.14874 9.14228 4.6175 9.9734 2.80821C10.2747 2.15216 10.5756 1.59442 10.8393 1.14677C10.8924 1.14593 10.9454 1.14551 10.9987 1.14551C11.0512 1.14551 11.1036 1.14592 11.1559 1.14674C11.4196 1.59439 11.7205 2.15215 12.0219 2.80821C12.8529 4.6175 13.6761 7.14874 13.7535 10.169Z" fill="black"/>
</svg>
