<svg width="22" height="22" viewBox="0 0 22 22" fill="none" xmlns="http://www.w3.org/2000/svg">
<g clip-path="url(#clip0_43_97)">
<path d="M2.23828 21.5977H7.58203C9.07031 21.5977 9.82031 20.8594 9.82031 19.3125V14.0625C9.82031 12.5273 9.07031 11.7773 7.58203 11.7773H2.23828C0.75 11.7773 0 12.5273 0 14.0625V19.3125C0 20.8594 0.75 21.5977 2.23828 21.5977Z" fill="white"/>
<path d="M14.0039 9.84375H19.3359C20.8242 9.84375 21.5742 9.09375 21.5742 7.54688V2.30859C21.5742 0.761719 20.8242 0.0234375 19.3359 0.0234375H14.0039C12.5039 0.0234375 11.7539 0.761719 11.7539 2.30859V7.54688C11.7539 9.09375 12.5039 9.84375 14.0039 9.84375Z" fill="white"/>
<path d="M2.23828 9.84375H7.58203C9.07031 9.84375 9.82031 9.09375 9.82031 7.54688V2.30859C9.82031 0.761719 9.07031 0.0234375 7.58203 0.0234375H2.23828C0.75 0.0234375 0 0.761719 0 2.30859V7.54688C0 9.09375 0.75 9.84375 2.23828 9.84375Z" fill="white"/>
<path d="M16.8906 21.6094C19.7148 21.6094 22 19.3242 22 16.5C22 13.6758 19.7148 11.3906 16.8906 11.3906C14.0664 11.3906 11.7812 13.6758 11.7812 16.5C11.7812 19.3242 14.0664 21.6094 16.8906 21.6094Z" fill="white"/>
</g>
<defs>
<clipPath id="clip0_43_97">
<rect width="21.9258" height="21.5977" fill="white"/>
</clipPath>
</defs>
</svg>
