<svg width="24" height="25" fill="none"><g stroke="#fff" stroke-linecap="round" stroke-linejoin="round" stroke-width="2" clip-path="url(#a)"><path d="M19 9.148 13.667 4.92a2.63 2.63 0 0 0-1.637-.572c-.593 0-1.17.201-1.637.572L5.059 9.148c-.32.254-.58.58-.758.951a2.76 2.76 0 0 0-.271 1.194v7.339c0 .54.21 1.06.586 1.441.375.383.883.597 1.414.597h12c.53 0 1.039-.214 1.414-.597.375-.382.586-.9.586-1.441v-7.339c0-.838-.38-1.63-1.03-2.145"/><path d="M16 15.559c-2.21 1.358-5.792 1.358-8 0"/></g><defs><clipPath id="a"><path fill="#fff" d="M0 .27h24v24.462H0z"/></clipPath></defs></svg>