<svg width="24" height="24" fill="none"><g stroke-linecap="round" stroke-linejoin="round" stroke-width="2" clip-path="url(#a)"><path stroke="url(#b)" d="M3 12h1m8-9v1m8 8h1M5.6 5.6l.7.7m12.1-.7-.7.7"/><path stroke="url(#c)" d="M9 16a5 5 0 1 1 6 0 3.5 3.5 0 0 0-1 3 2 2 0 0 1-4 0 3.5 3.5 0 0 0-1-3"/><path stroke="url(#d)" d="M9.7 17h4.6"/></g><defs><linearGradient id="b" x1="3" x2="22.74" y1="4" y2="3.63" gradientUnits="userSpaceOnUse"><stop stop-color="#FC7416"/><stop offset=".24" stop-color="#FC7416"/><stop offset=".62"/><stop offset="1"/></linearGradient><linearGradient id="c" x1="7" x2="17.97" y1="8.56" y2="8.48" gradientUnits="userSpaceOnUse"><stop stop-color="#FC7416"/><stop offset=".24" stop-color="#FC7416"/><stop offset=".62"/><stop offset="1"/></linearGradient><linearGradient id="d" x1="9.7" x2="14.74" y1="17.11" y2="16.9" gradientUnits="userSpaceOnUse"><stop stop-color="#FC7416"/><stop offset=".24" stop-color="#FC7416"/><stop offset=".62"/><stop offset="1"/></linearGradient><clipPath id="a"><path fill="#fff" d="M0 0h24v24H0z"/></clipPath></defs></svg>