<svg width="16" height="15" fill="none"><path fill="#FC7416" fill-rule="evenodd" d="M13.818 1.455H2.182a.727.727 0 0 0-.727.727v10.182a.727.727 0 0 0 .727.727h11.636a.727.727 0 0 0 .728-.727V2.182a.727.727 0 0 0-.728-.727M2.182 0A2.18 2.18 0 0 0 0 2.182v10.182a2.18 2.18 0 0 0 2.182 2.182h11.636A2.18 2.18 0 0 0 16 12.364V2.182A2.18 2.18 0 0 0 13.818 0zm1.454 3.636h1.455v1.455H3.636zm3.637 0a.727.727 0 0 0 0 1.455h4.363a.727.727 0 0 0 0-1.455zM5.09 6.546H3.636V8h1.455zm1.454.727a.727.727 0 0 1 .728-.728h4.363a.727.727 0 0 1 0 1.455H7.273a.727.727 0 0 1-.728-.727M5.091 9.455H3.636v1.454h1.455zm1.454.727a.727.727 0 0 1 .728-.727h4.363a.727.727 0 0 1 0 1.454H7.273a.727.727 0 0 1-.728-.727" clip-rule="evenodd"/></svg>