<svg width="12" height="16" viewBox="0 0 12 16" fill="none" xmlns="http://www.w3.org/2000/svg">
<path fill-rule="evenodd" clip-rule="evenodd" d="M4.85119 14.6216C5.53907 15.144 6.46093 15.144 7.14881 14.6216C9.23103 13.0404 12 9.57191 12 6.70065C12 3.24967 9.42857 0.661434 6 0.661434C2.57143 0.661434 -7.62939e-07 3.24967 -7.62939e-07 6.70065C-7.62939e-07 9.5719 2.76897 13.0404 4.85119 14.6216ZM6 9.0013C7.26237 9.0013 8.28572 7.97127 8.28572 6.70065C8.28572 5.43004 7.26237 4.4 6 4.4C4.73763 4.4 3.71429 5.43004 3.71429 6.70065C3.71429 7.97127 4.73763 9.0013 6 9.0013Z" fill="#FF3300"/>
</svg>
