<svg width="22" height="22" viewBox="0 0 22 22" fill="none" xmlns="http://www.w3.org/2000/svg">
<path fill-rule="evenodd" clip-rule="evenodd" d="M11.5487 3.66634C7.13823 3.66634 3.66536 7.00442 3.66536 10.9997C3.66536 14.995 7.13823 18.333 11.5487 18.333C11.943 18.333 12.3299 18.3062 12.7076 18.2544C13.2092 18.1857 13.6715 18.5366 13.7402 19.0382C13.8089 19.5397 13.458 20.0021 12.9564 20.0707C12.4963 20.1338 12.0263 20.1663 11.5487 20.1663C6.23896 20.1663 1.83203 16.1171 1.83203 10.9997C1.83203 5.88224 6.23896 1.83301 11.5487 1.83301C12.0263 1.83301 12.4963 1.86557 12.9564 1.92859C13.458 1.99729 13.8089 2.4596 13.7402 2.96118C13.6715 3.46275 13.2092 3.81367 12.7076 3.74495C12.3299 3.69321 11.943 3.66634 11.5487 3.66634Z" fill="#FF3300"/>
<path fill-rule="evenodd" clip-rule="evenodd" d="M16.6088 7.8618C16.9514 7.71992 17.3456 7.79834 17.6078 8.0605L19.8995 10.3522C20.2574 10.7101 20.2574 11.2905 19.8995 11.6485L17.6078 13.9402C17.3456 14.2023 16.9514 14.2808 16.6088 14.1389C16.2663 13.997 16.043 13.6628 16.043 13.292V11.917H10.0846C9.57836 11.917 9.16797 11.5066 9.16797 11.0003C9.16797 10.4941 9.57836 10.0837 10.0846 10.0837H16.043V8.70869C16.043 8.33793 16.2663 8.00368 16.6088 7.8618Z" fill="#FF3300"/>
</svg>
