<?xml version="1.0" standalone="no"?>
<!DOCTYPE svg PUBLIC "-//W3C//DTD SVG 20010904//EN"
 "http://www.w3.org/TR/2001/REC-SVG-20010904/DTD/svg10.dtd">
<svg version="1.0" xmlns="http://www.w3.org/2000/svg"
 width="2000.000000pt" height="2000.000000pt" viewBox="0 0 2000.000000 2000.000000"
 preserveAspectRatio="xMidYMid meet">

<g transform="translate(0.000000,2000.000000) scale(0.100000,-0.100000)"
fill="#000000" stroke="none">
<path d="M3460 13691 c-241 -53 -428 -158 -610 -340 -244 -245 -399 -581 -467
-1011 -17 -109 -18 -239 -18 -2325 0 -2371 -2 -2283 51 -2522 97 -441 323
-800 634 -1010 126 -85 296 -151 460 -179 220 -36 73 -62 2853 495 2806 562
2656 528 2966 682 261 130 448 265 637 461 223 232 362 493 394 738 8 59 10
476 8 1375 -4 1288 -4 1290 -25 1371 -153 571 -769 1095 -1503 1279 -52 13
-1191 243 -2530 511 l-2435 487 -165 4 c-133 2 -181 -1 -250 -16z m2313 -966
c429 -65 868 -205 1255 -399 362 -181 666 -384 979 -652 129 -110 463 -431
463 -444 0 -4 -53 -41 -117 -81 -65 -40 -151 -95 -191 -121 -118 -79 -153 -92
-262 -92 -159 -1 -227 42 -376 240 -258 344 -635 644 -953 758 -41 15 -140 40
-220 56 -605 120 -898 14 -967 -350 -19 -100 -14 -254 12 -340 86 -290 335
-465 892 -630 267 -78 985 -322 1197 -406 248 -98 546 -247 659 -328 159 -115
294 -264 351 -387 45 -99 59 -174 58 -309 0 -178 -32 -327 -103 -484 -230
-509 -917 -988 -1868 -1303 -937 -310 -1528 -264 -2063 162 -109 86 -144 125
-182 205 -30 61 -32 72 -32 175 0 93 4 118 22 158 25 54 143 221 391 551 l164
218 42 -99 c167 -392 485 -695 858 -817 210 -68 418 -72 648 -13 410 107 734
272 878 448 97 119 132 213 132 356 0 116 -24 175 -101 252 -137 135 -328 198
-850 281 -265 42 -640 129 -869 202 -687 219 -1068 531 -1253 1028 -86 230
-112 411 -104 730 8 308 38 494 114 714 64 185 139 312 257 435 170 176 383
273 671 305 75 8 370 -4 468 -19z"/>
<path d="M11820 11343 c-93 -14 -187 -41 -261 -72 -293 -127 -495 -376 -587
-726 l-26 -100 -3 -585 -4 -585 24 -45 c13 -25 43 -58 66 -75 l43 -30 224 -3
224 -3 0 265 0 266 320 0 320 0 0 120 0 120 -321 0 -321 0 5 348 c5 370 13
444 66 583 75 198 222 299 418 287 218 -13 341 -162 400 -483 26 -144 26 -678
0 -880 -45 -350 -132 -676 -239 -889 -22 -43 -38 -79 -36 -81 2 -1 50 -30 108
-63 l105 -61 43 42 c230 223 462 665 551 1049 31 131 51 305 51 438 0 575
-341 1051 -825 1151 -83 17 -271 24 -345 12z"/>
<path d="M15822 11223 c-178 -375 -264 -773 -232 -1078 34 -335 155 -596 369
-797 43 -40 109 -92 147 -114 84 -49 226 -107 309 -125 88 -19 322 -16 420 5
432 94 740 459 795 941 13 120 13 1048 0 1097 -16 56 -69 119 -125 147 -47 25
-58 26 -246 29 l-197 3 -5 -723 c-5 -782 -6 -789 -62 -959 -61 -183 -168 -282
-334 -311 -81 -14 -177 -1 -244 34 -99 50 -182 174 -222 333 -39 154 -48 282
-42 622 5 302 14 400 53 613 13 75 79 344 91 378 4 9 -42 12 -209 12 l-215 0
-51 -107z"/>
<path d="M13380 11165 l0 -135 561 -2 560 -3 -560 -818 -561 -818 0 -52 c0
-69 15 -120 47 -157 53 -63 2 -60 913 -60 l830 0 0 135 0 135 -559 2 -559 3
559 815 559 815 -2 86 c-3 76 -6 90 -31 122 -54 71 4 67 -922 67 l-835 0 0
-135z"/>
<path d="M12895 8528 c-136 -26 -282 -140 -344 -270 -52 -111 -61 -183 -61
-514 l0 -294 145 0 145 0 0 130 0 130 160 0 160 0 0 60 0 60 -160 0 -160 0 0
153 c0 271 46 388 166 427 112 37 218 -26 262 -157 24 -71 24 -471 0 -599 -21
-107 -61 -239 -94 -308 -13 -28 -24 -53 -24 -57 0 -10 86 -59 104 -59 36 0
180 206 237 339 57 135 81 251 82 391 0 109 -3 135 -26 206 -63 191 -200 322
-376 360 -74 15 -142 16 -216 2z"/>
<path d="M11027 7992 c-48 -284 -87 -523 -87 -530 0 -10 21 -12 87 -10 l88 3
39 388 c22 213 43 387 46 387 3 0 59 -176 124 -390 l119 -390 133 0 133 0 11
38 c5 20 52 192 102 382 76 281 94 339 100 315 4 -17 24 -174 43 -350 19 -176
37 -335 40 -352 l6 -33 144 0 c109 0 145 3 145 13 0 6 -32 245 -72 530 l-72
518 -136 -3 -135 -3 -91 -295 c-51 -162 -107 -342 -124 -399 -19 -60 -35 -99
-40 -92 -4 7 -61 188 -126 402 l-119 389 -135 0 -135 0 -88 -518z"/>
<path d="M13710 7981 l0 -531 145 0 145 0 0 201 0 200 47 -3 46 -3 18 -64 c22
-84 88 -212 142 -278 l42 -53 184 0 184 0 -64 49 c-35 26 -96 82 -136 124 -67
71 -173 210 -173 228 0 5 12 12 28 15 59 15 133 54 178 96 84 78 116 147 115
254 -1 118 -61 208 -175 261 l-61 28 -332 3 -333 3 0 -530z m492 417 c80 -24
125 -112 115 -225 -7 -73 -28 -128 -65 -166 -44 -47 -74 -57 -167 -57 l-85 0
0 230 0 230 81 0 c45 0 99 -5 121 -12z"/>
<path d="M14810 7980 l0 -530 145 0 145 0 0 208 0 208 31 18 c17 10 32 16 33
14 2 -1 69 -97 150 -213 82 -115 154 -216 160 -223 9 -9 50 -12 160 -10 l147
3 -210 295 -209 295 97 95 c54 52 118 120 143 150 53 63 148 200 148 212 0 4
-42 8 -94 8 l-94 0 -56 -82 c-75 -111 -172 -222 -281 -319 -139 -124 -125
-140 -125 151 l0 250 -145 0 -145 0 0 -530z"/>
<path d="M15910 7980 l0 -530 380 0 380 0 0 65 0 65 -235 0 -235 0 0 170 0
170 180 0 180 0 0 65 0 65 -180 0 -180 0 0 165 0 165 235 0 235 0 0 65 0 65
-380 0 -380 0 0 -530z"/>
<path d="M16760 8445 l0 -65 150 0 150 0 0 -465 0 -465 145 0 145 0 0 465 0
465 145 0 145 0 0 65 0 65 -440 0 -440 0 0 -65z"/>
</g>
</svg>
