<svg width="24" height="24" viewBox="0 0 24 24" fill="none" xmlns="http://www.w3.org/2000/svg">
<path d="M4.74827 22.2853C5.92742 22.2853 8.86544 20.9928 10.5359 19.7891C10.7029 19.6707 10.8405 19.6213 10.9781 19.6213C11.1058 19.6312 11.2335 19.6411 11.3612 19.6411C18.446 19.6411 23.1428 15.5959 23.1428 10.6824C23.1428 5.71962 18.1905 1.71387 12 1.71387C5.8095 1.71387 0.857117 5.71962 0.857117 10.6824C0.857117 13.8396 2.79287 16.6121 5.94707 18.3091C6.09446 18.3881 6.14359 18.5361 6.06498 18.684C5.51472 19.5918 4.5321 20.677 4.15871 21.1704C3.77549 21.6637 3.99166 22.2853 4.74827 22.2853Z" fill="black"/>
</svg>
