<svg width="22" height="22" viewBox="0 0 22 22" fill="none" xmlns="http://www.w3.org/2000/svg">
<path d="M19.9347 10.151C19.8961 8.00684 19.0965 5.87145 17.4599 4.25001C15.8217 2.62709 13.7161 1.85881 11.6129 1.83441C11.2322 1.82999 11.0418 1.82778 10.9057 1.96234C10.7695 2.0969 10.7695 2.30076 10.7695 2.70849V10.0838C10.7695 10.516 10.7695 10.732 10.9037 10.8662C11.038 11.0005 11.2541 11.0005 11.6862 11.0005H19.0602C19.4704 11.0005 19.6756 11.0005 19.8103 10.8633C19.9451 10.7261 19.9416 10.5345 19.9347 10.151Z" fill="black"/>
<path d="M9.42359 10.7703C9.4609 11.0475 9.56631 11.4736 9.93151 11.8388C10.2967 12.204 10.7228 12.3094 11.0001 12.3467C11.2201 12.3763 11.4687 12.3761 11.645 12.3758H19.0602H19.1C19.234 12.376 19.4209 12.3763 19.6044 12.3597C18.9499 16.6509 15.2436 19.9384 10.7695 19.9384C5.83348 19.9384 1.83203 15.937 1.83203 11.0009C1.83203 6.52681 5.11953 2.82057 9.41066 2.16602C9.39398 2.34917 9.39426 2.53577 9.39453 2.6692V2.7088V10.1253C9.39426 10.3016 9.39398 10.5503 9.42359 10.7703Z" fill="black"/>
</svg>
