<svg width="18" height="8" fill="none"><path fill="#000" stroke="#FC7416" d="M16.478.5h.02-.026zm-.008 0H.944 16.47ZM.5.943V7.06.942ZM.962 7.5H.943h.025zm.008 0h15.584H.97Zm13.898-3.816-.242.297-.011-.014 2.163-2.65.152-.187a.4.4 0 0 1-.062.104z"/><mask id="a" fill="#fff"><path d="M4.695 4.675 3.065 2.5H2.5v3.09h.565V3.42l1.63 2.17h.56V2.5h-.56z"/></mask><path fill="#000" d="M4.695 4.675 3.065 2.5H2.5v3.09h.565V3.42l1.63 2.17h.56V2.5h-.56z"/><path fill="#FC7416" d="m4.695 4.675-.8.6 1.8 2.402V4.675zM3.065 2.5l.8-.6-.3-.4h-.5zm-.565 0v-1h-1v1zm0 3.09h-1v1h1zm.565 0v1h1v-1zm0-2.17.8-.6-1.8-2.396V3.42zm1.63 2.17-.8.6.3.4h.5zm.56 0v1h1v-1zm0-3.09h1v-1h-1zm-.56 0v-1h-1v1zm.8 1.575L3.865 1.9l-1.6 1.2 1.63 2.175zM3.065 1.5H2.5v2h.565zM1.5 2.5v3.09h2V2.5zm1 4.09h.565v-2H2.5zm1.565-1V3.42h-2v2.17zm-1.8-1.57 1.63 2.17 1.6-1.2-1.63-2.17zm2.43 2.57h.56v-2h-.56zm1.56-1V2.5h-2v3.09zm-1-4.09h-.56v2h.56zm-1.56 1v2.175h2V2.5z" mask="url(#a)"/><mask id="b" fill="#fff"><path d="M6.09 5.59h2.33v-.51H6.655v-.805H8.25V3.76H6.655v-.745H8.42V2.5H6.09z"/></mask><path fill="#000" d="M6.09 5.59h2.33v-.51H6.655v-.805H8.25V3.76H6.655v-.745H8.42V2.5H6.09z"/><path fill="#FC7416" d="M6.09 5.59h-1v1h1zm2.33 0v1h1v-1zm0-.51h1v-1h-1zm-1.765 0h-1v1h1zm0-.805v-1h-1v1zm1.595 0v1h1v-1zm0-.515h1v-1h-1zm-1.595 0h-1v1h1zm0-.745v-1h-1v1zm1.765 0v1h1v-1zm0-.515h1v-1h-1zm-2.33 0v-1h-1v1zm0 4.09h2.33v-2H6.09zm3.33-1v-.51h-2v.51zm-1-1.51H6.655v2H8.42zm-.765 1v-.805h-2v.805zm-1 .195H8.25v-2H6.655zm2.595-1V3.76h-2v.515zm-1-1.515H6.655v2H8.25zm-.595 1v-.745h-2v.745zm-1 .255H8.42v-2H6.655zm2.765-1V2.5h-2v.515zm-1-1.515H6.09v2h2.33zm-3.33 1v3.09h2V2.5z" mask="url(#b)"/><mask id="c" fill="#fff"><path d="M12.26 4.715 11.53 2.5h-.61l-.735 2.215-.66-2.215H8.91l.98 3.09h.555l.78-2.295L12 5.59h.565l.975-3.09h-.615z"/></mask><path fill="#000" d="M12.26 4.715 11.53 2.5h-.61l-.735 2.215-.66-2.215H8.91l.98 3.09h.555l.78-2.295L12 5.59h.565l.975-3.09h-.615z"/><path fill="#FC7416" d="m12.26 4.715-.95.313.995 3.017.913-3.042zM11.53 2.5l.95-.313-.226-.687h-.724zm-.61 0v-1h-.722l-.227.685zm-.735 2.215-.958.286.907 3.044 1-3.015zM9.525 2.5l.958-.286-.212-.714h-.746zm-.615 0v-1H7.544l.413 1.302zm.98 3.09-.953.302.221.698h.732zm.555 0v1h.716l.231-.678zm.78-2.295.948-.32-.945-2.797-.95 2.795zM12 5.59l-.947.32.23.68H12zm.565 0v1h.733l.22-.699zm.975-3.09.954.3.41-1.3H13.54zm-.615 0v-1h-.744l-.213.712zm.285 1.902-.73-2.215-1.9.626.73 2.215zM11.53 1.5h-.61v2h.61zm-1.559.685L9.236 4.4l1.898.63.735-2.215zm1.173 2.245-.66-2.216-1.917.572L9.227 5zM9.525 1.5H8.91v2h.615zM7.957 2.802l.98 3.09 1.906-.604-.98-3.09zM9.89 6.59h.555v-2H9.89zm1.502-.678.78-2.295-1.894-.644-.78 2.295zm-1.114-2.297.775 2.295 1.895-.64-.775-2.295zM12 6.59h.565v-2H12zm1.519-.699.975-3.09-1.907-.602-.975 3.09zM13.54 1.5h-.615v2h.615zm-1.572.712-.665 2.216 1.915.575.665-2.215z" mask="url(#c)"/></svg>