<svg width="96" height="96" viewBox="0 0 96 96" fill="none" xmlns="http://www.w3.org/2000/svg">
<path fill-rule="evenodd" clip-rule="evenodd" d="M8.09375 79.5146C28.1374 99.324 60.4853 99.2109 80.4897 79.2065C100.494 59.202 100.607 26.8541 80.7979 6.81048L8.09375 79.5146Z" fill="url(#paint0_linear_2230_7431)"/>
<ellipse cx="44.6662" cy="43.8147" rx="11.3616" ry="51.4096" transform="rotate(45 44.6662 43.8147)" fill="url(#paint1_linear_2230_7431)"/>
<mask id="mask0_2230_7431" style="mask-type:luminance" maskUnits="userSpaceOnUse" x="7" y="6" width="75" height="76">
<ellipse cx="44.6662" cy="43.8147" rx="11.3616" ry="51.4096" transform="rotate(45 44.6662 43.8147)" fill="white"/>
</mask>
<g mask="url(#mask0_2230_7431)">
<path d="M59.4701 47.0849L38.6328 37.0465L46.6758 57.8961" fill="#F9F9F9"/>
</g>
<ellipse cx="36.627" cy="35.3471" rx="7.34423" ry="7.36971" transform="rotate(-45 36.627 35.3471)" fill="#FC7416"/>
<path fill-rule="evenodd" clip-rule="evenodd" d="M13.2806 29.5102C13.6404 29.5108 13.9599 29.3515 14.1994 29.112C14.4787 28.8326 14.618 28.4531 14.5974 28.0333C14.3711 24.0556 15.8638 20.1606 18.6774 17.347C21.4511 14.5733 25.3061 13.0805 29.2439 13.2667C30.0234 13.288 30.702 12.6895 30.7207 11.91C30.7394 11.1306 30.1387 10.45 29.3592 10.4288C24.642 10.2213 20.0079 12.0126 16.6755 15.345C13.3031 18.7174 11.5319 23.4114 11.7794 28.1687C11.8407 28.9483 12.5012 29.5689 13.2806 29.5102ZM22.0074 32.1317C22.3535 32.0821 22.6559 31.9492 22.8735 31.7316C23.1505 31.4546 23.3202 31.0307 23.2638 30.5786C22.9877 28.4822 23.6552 26.4589 25.0798 25.0343C26.4846 23.6296 28.4669 22.9606 30.521 23.1944C31.3022 23.3029 31.9989 22.7333 32.0331 21.9365C32.0884 21.1609 31.4699 20.4236 30.6689 20.3349C27.7729 20.011 24.9612 20.9586 22.9826 22.9372C20.9447 24.9751 19.9986 27.8278 20.386 30.7873C20.4945 31.5685 21.2106 32.1659 22.0074 32.1317Z" fill="#FC7416"/>
<path d="M3.36002 27.7956C3.1216 28.034 2.80401 28.1933 2.42719 28.2138C1.65377 28.2351 1.02034 27.6415 0.962337 26.8682C0.718107 19.8289 3.44813 12.9425 8.43516 7.95546C10.9538 5.43687 13.8927 3.50957 17.0954 2.24452C17.3466 2.11411 19.4918 1.81128 19.8 2.73144C20.1081 3.65159 18.0542 4.90956 18.0542 4.90956C15.2376 6.03553 12.6518 7.73688 10.4342 9.95448C6.00347 14.3852 3.59218 20.5174 3.7982 26.8032C3.77772 27.1404 3.61831 27.5373 3.36002 27.7956Z" fill="#FC7416"/>
<mask id="mask1_2230_7431" style="mask-type:luminance" maskUnits="userSpaceOnUse" x="0" y="2" width="20" height="27">
<path d="M3.36002 27.7956C3.1216 28.034 2.80401 28.1933 2.42719 28.2138C1.65377 28.2351 1.02034 27.6415 0.962337 26.8682C0.718107 19.8289 3.44813 12.9425 8.43516 7.95546C10.9538 5.43687 13.8927 3.50957 17.0954 2.24452C17.3466 2.11411 19.4918 1.81128 19.8 2.73144C20.1081 3.65159 18.0542 4.90956 18.0542 4.90956C15.2376 6.03553 12.6518 7.73688 10.4342 9.95448C6.00347 14.3852 3.59218 20.5174 3.7982 26.8032C3.77772 27.1404 3.61831 27.5373 3.36002 27.7956Z" fill="white"/>
</mask>
<g mask="url(#mask1_2230_7431)">
</g>
<defs>
<linearGradient id="paint0_linear_2230_7431" x1="30.073" y1="113.659" x2="108.007" y2="57.7429" gradientUnits="userSpaceOnUse">
<stop stop-color="#F8FBFF"/>
<stop offset="1" stop-color="#D9DDE2"/>
</linearGradient>
<linearGradient id="paint1_linear_2230_7431" x1="44.6661" y1="-7.59494" x2="44.6661" y2="95.2243" gradientUnits="userSpaceOnUse">
<stop stop-color="#EEF0F4"/>
<stop offset="0.927" stop-color="#E4E4E4"/>
</linearGradient>
</defs>
</svg>
