<svg width="24" height="24" fill="none"><path fill="#B4ADAD" d="M4 13.62 6.62 11a.51.51 0 0 1 .38-.17.5.5 0 0 1 .35.15l.72.72a.5.5 0 0 1 0 .7l-2.8 2.8a2.502 2.502 0 0 0 .3 3.8 2.61 2.61 0 0 0 3.31-.35L11.6 16a.5.5 0 0 1 .7 0l.72.72a.5.5 0 0 1 0 .71l-2.8 2.79a4.52 4.52 0 0 1-6.69-.33A4.67 4.67 0 0 1 4 13.62m12.55-.46a.51.51 0 0 0 .71 0L20 10.38a4.67 4.67 0 0 0 .45-6.22 4.44 4.44 0 0 0-3.28-1.65 4.5 4.5 0 0 0-3.42 1.32l-2.91 2.93a.5.5 0 0 0-.15.35.53.53 0 0 0 .15.36l.72.72a.5.5 0 0 0 .7 0l2.86-2.86A2.7 2.7 0 0 1 17 4.54a2.4 2.4 0 0 1 1.43.46 2.5 2.5 0 0 1 .32 3.82l-2.94 2.94a.5.5 0 0 0 0 .7zM6.07 7.76a.75.75 0 0 0-.49-.94l-2.1-.66a.74.74 0 0 0-.94.49.76.76 0 0 0 .46.94l2.1.66a.8.8 0 0 0 .22 0 .76.76 0 0 0 .75-.49m2.49-2.45a.76.76 0 0 0 .64-.85L9 3a.76.76 0 0 0-1.127-.547.74.74 0 0 0-.363.747l.2 1.44a.75.75 0 0 0 .74.64zm7.85 15.42a.76.76 0 0 0 .58-.89l-.44-2.15a.77.77 0 0 0-.89-.58.74.74 0 0 0-.58.89l.44 2.15a.75.75 0 0 0 .73.59zm4.51-4.8a.76.76 0 0 0-.55-.91L19 14.68a.75.75 0 1 0-.36 1.45l1.4.35q.09.015.18 0a.75.75 0 0 0 .7-.55"/></svg>