<svg width="16" height="16" viewBox="0 0 16 16" fill="none" xmlns="http://www.w3.org/2000/svg">
<path d="M3 4.25C3 3.52065 3.28973 2.82118 3.80546 2.30546C4.32118 1.78973 5.02065 1.5 5.75 1.5C6.47935 1.5 7.17882 1.78973 7.69454 2.30546C8.21027 2.82118 8.5 3.52065 8.5 4.25C8.5 4.97935 8.21027 5.67882 7.69454 6.19454C7.17882 6.71027 6.47935 7 5.75 7C5.02065 7 4.32118 6.71027 3.80546 6.19454C3.28973 5.67882 3 4.97935 3 4.25ZM9.5 5.75C9.5 5.45453 9.5582 5.16194 9.67127 4.88896C9.78434 4.61598 9.95008 4.36794 10.159 4.15901C10.3679 3.95008 10.616 3.78434 10.889 3.67127C11.1619 3.5582 11.4545 3.5 11.75 3.5C12.0455 3.5 12.3381 3.5582 12.611 3.67127C12.884 3.78434 13.1321 3.95008 13.341 4.15901C13.5499 4.36794 13.7157 4.61598 13.8287 4.88896C13.9418 5.16194 14 5.45453 14 5.75C14 6.34674 13.7629 6.91903 13.341 7.34099C12.919 7.76295 12.3467 8 11.75 8C11.1533 8 10.581 7.76295 10.159 7.34099C9.73705 6.91903 9.5 6.34674 9.5 5.75ZM1 12.75C1 11.4902 1.50045 10.282 2.39124 9.39124C3.28204 8.50045 4.49022 8 5.75 8C7.00978 8 8.21796 8.50045 9.10876 9.39124C9.99955 10.282 10.5 11.4902 10.5 12.75V12.752L10.4993 12.8313C10.4979 12.9161 10.475 12.9991 10.4326 13.0726C10.3903 13.1461 10.33 13.2076 10.2573 13.2513C8.8968 14.0706 7.33818 14.5024 5.75 14.5C4.102 14.5 2.55933 14.044 1.24333 13.2513C1.17057 13.2077 1.11011 13.1462 1.06766 13.0727C1.0252 12.9993 1.00215 12.9162 1.00067 12.8313L1 12.75ZM11.5 12.752L11.4993 12.848C11.4956 13.0702 11.4425 13.2888 11.344 13.488C12.5078 13.5598 13.6703 13.3277 14.7173 12.8147C14.7983 12.7751 14.8671 12.7144 14.9164 12.6389C14.9657 12.5634 14.9936 12.4761 14.9973 12.386C15.0209 11.8268 14.8996 11.2711 14.6453 10.7725C14.391 10.274 14.0122 9.84953 13.5457 9.54033C13.0792 9.23114 12.5407 9.04766 11.9825 9.00765C11.4243 8.96765 10.8652 9.07248 10.3593 9.312C11.1015 10.3044 11.5015 11.5108 11.4993 12.75L11.5 12.752Z" fill="#C2C2C2"/>
</svg>
