<svg width="24" height="24" fill="none"><g stroke="#000" stroke-linecap="round" stroke-linejoin="round" stroke-width="2" clip-path="url(#a)"><path d="M8 7a4 4 0 1 0 8 0 4 4 0 0 0-8 0M6 21v-2a4 4 0 0 1 4-4h.5M17.8 20.818l-2.172 1.137a.392.392 0 0 1-.568-.41l.415-2.41-1.757-1.708a.39.39 0 0 1 .217-.665l2.428-.352 1.086-2.193a.392.392 0 0 1 .702 0l1.086 2.193 2.428.352a.389.389 0 0 1 .217.665l-1.757 1.707.414 2.41a.389.389 0 0 1-.567.412z"/></g><defs><clipPath id="a"><path fill="#fff" d="M0 0h24v24H0z"/></clipPath></defs></svg>