<svg width="333" height="50" viewBox="0 0 333 50" fill="none" xmlns="http://www.w3.org/2000/svg">
<path d="M37.5005 3.34973C41.2712 5.52687 44.4079 8.65104 46.6001 12.413C48.7923 16.1749 49.964 20.4442 49.9992 24.7981C50.0344 29.152 48.9318 33.4396 46.8006 37.2365C44.6695 41.0333 41.5836 44.2078 37.8486 46.4455C34.1135 48.6833 29.8588 49.9068 25.5056 49.9949C21.1523 50.083 16.8516 49.0326 13.029 46.9478C9.20651 44.863 5.99475 41.816 3.71171 38.1085C1.42867 34.401 0.153525 30.1615 0.0125004 25.8097L0 24.9997L0.0125004 24.1897C0.15251 19.8722 1.40889 15.6646 3.65914 11.9772C5.9094 8.28979 9.07675 5.24836 12.8524 3.14944C16.628 1.05051 20.8831 -0.034277 25.2028 0.000825614C29.5225 0.0359282 33.7594 1.18973 37.5005 3.34973ZM21.2778 17.8497C20.754 17.5379 20.1343 17.4282 19.5353 17.5413C18.9363 17.6544 18.3992 17.9824 18.0251 18.4637C17.651 18.945 17.4656 19.5464 17.5039 20.1547C17.5421 20.7631 17.8013 21.3366 18.2327 21.7672L21.4628 24.9997L18.2327 28.2322L18.0252 28.4672C17.6367 28.9697 17.454 29.6012 17.5142 30.2335C17.5745 30.8658 17.8731 31.4515 18.3495 31.8716C18.8259 32.2917 19.4444 32.5147 20.0793 32.4953C20.7142 32.4759 21.3179 32.2156 21.7678 31.7672L25.0003 28.5372L28.2328 31.7672L28.4678 31.9747C28.9703 32.3633 29.6019 32.546 30.2342 32.4857C30.8665 32.4255 31.4522 32.1268 31.8723 31.6504C32.2924 31.174 32.5154 30.5556 32.496 29.9207C32.4766 29.2858 32.2163 28.6821 31.7679 28.2322L28.5379 24.9997L31.7679 21.7672L31.9754 21.5322C32.3639 21.0297 32.5466 20.3982 32.4864 19.7659C32.4262 19.1336 32.1275 18.5479 31.6511 18.1278C31.1747 17.7078 30.5562 17.4848 29.9213 17.5042C29.2864 17.5235 28.6827 17.7839 28.2328 18.2322L25.0003 21.4622L21.7678 18.2322L21.5328 18.0247L21.2778 17.8497Z" fill="#FF3300"/>
<path d="M61.998 23.5C61.998 21.2909 63.7889 19.5 65.998 19.5H81.998C84.2072 19.5 85.998 21.2909 85.998 23.5C85.998 25.7091 84.2072 27.5 81.998 27.5H65.998C63.7889 27.5 61.998 25.7091 61.998 23.5Z" fill="#BCBCBC"/>
<path d="M124.808 38C124.891 37.9761 124.962 37.9403 125.045 37.8925L134.307 32.5634C135.407 31.9302 135.998 31.285 135.998 29.5524V20.2445C135.998 19.886 135.974 19.5993 135.903 19.3364L124.808 25.7408V38ZM123.188 38V25.7408L112.093 19.3364C112.022 19.5993 111.998 19.886 111.998 20.2445V29.5524C111.998 31.285 112.601 31.9302 113.69 32.5634L122.963 37.8925C123.034 37.9403 123.105 37.9761 123.188 38ZM124.004 24.307L129.055 21.4155L117.853 14.9513L113.512 17.4485C113.252 17.5919 113.039 17.7353 112.85 17.9145L124.004 24.307ZM130.699 20.4715L135.146 17.9145C134.969 17.7353 134.756 17.5919 134.496 17.4485L126.145 12.6452C125.423 12.227 124.702 12 124.004 12C123.294 12 122.573 12.227 121.851 12.6452L119.45 14.0193L130.699 20.4715Z" fill="#BCBCBC"/>
<path d="M161 23.5C161 21.2909 162.791 19.5 165 19.5H181C183.209 19.5 185 21.2909 185 23.5C185 25.7091 183.209 27.5 181 27.5H165C162.791 27.5 161 25.7091 161 23.5Z" fill="#BCBCBC"/>
<path d="M225.739 30.7479V18.588C225.739 16.8944 224.909 16 223.311 16H211.427C209.828 16 208.998 16.8944 208.998 18.588V31.0714C208.998 32.765 209.828 33.6499 211.427 33.6499H212.034C212.016 33.5262 212.007 33.393 212.007 33.2598C212.007 31.1379 213.632 29.4063 215.623 29.4063C217.614 29.4063 219.23 31.1379 219.23 33.2598C219.23 33.393 219.221 33.5262 219.203 33.6499H224.891C224.873 33.5166 224.864 33.3835 224.864 33.2502C224.864 32.2798 225.168 31.3949 225.739 30.7479ZM226.962 21.2521V29.8059C227.391 29.549 227.9 29.3968 228.436 29.3968C230.427 29.3968 232.087 31.1284 232.087 33.2502C232.087 33.3835 232.078 33.5166 232.061 33.6499H232.605C234.177 33.6499 234.998 32.7555 234.998 31.0714V27.7127C234.998 26.7803 234.855 26.3425 234.364 25.7526L231.328 22.099C230.802 21.471 230.212 21.2521 229.337 21.2521H226.962ZM229.275 27.3225C228.775 27.3225 228.462 26.9991 228.462 26.4567V23.0124H229.248C229.659 23.0124 229.927 23.0885 230.275 23.4976L232.998 26.7517C233.141 26.9229 233.239 27.1037 233.275 27.3225H229.275ZM215.623 36C217.052 36 218.194 34.7726 218.194 33.2598C218.194 31.7469 217.043 30.5195 215.623 30.5195C214.203 30.5195 213.052 31.7469 213.052 33.2598C213.052 34.7631 214.203 36 215.623 36ZM228.471 36C229.9 36 231.043 34.7726 231.043 33.2502C231.043 31.7374 229.891 30.51 228.471 30.51C227.052 30.51 225.9 31.7374 225.9 33.2502C225.9 34.7631 227.052 36 228.471 36Z" fill="#BCBCBC"/>
<path d="M259.998 23.5C259.998 21.2909 261.789 19.5 263.998 19.5H279.998C282.207 19.5 283.998 21.2909 283.998 23.5C283.998 25.7091 282.207 27.5 279.998 27.5H263.998C261.789 27.5 259.998 25.7091 259.998 23.5Z" fill="#BCBCBC"/>
<path d="M310.982 38C311.526 38 311.967 37.5627 311.967 37.0061V29.6382C312.29 29.4924 313.508 29.0153 315.411 29.0153C320.203 29.0153 323.208 31.4139 327.766 31.4139C329.786 31.4139 330.538 31.1886 331.522 30.738C332.415 30.3273 332.998 29.6382 332.998 28.4189V14.9684C332.998 14.2528 332.402 13.842 331.651 13.842C331.017 13.842 329.825 14.3986 327.598 14.3986C323.039 14.3986 320.048 12 315.243 12C313.223 12 312.459 12.2253 311.474 12.6758C310.581 13.0866 309.998 13.7757 309.998 14.9817V37.0061C309.998 37.5495 310.451 38 310.982 38Z" fill="#BCBCBC"/>
</svg>
