<svg width="332" height="50" viewBox="0 0 332 50" fill="none" xmlns="http://www.w3.org/2000/svg">
<path d="M13.1055 12.001C15.3516 12.0192 17.5548 12.6191 19.5 13.7422C21.4607 14.8743 23.0925 16.4989 24.2324 18.4551C25.3723 20.4112 25.9817 22.6315 26 24.8955C26.0183 27.1595 25.4441 29.389 24.3359 31.3633C23.2278 33.3375 21.6237 34.9887 19.6816 36.1523C17.7394 37.316 15.5264 37.9522 13.2627 37.998C10.9992 38.0438 8.76295 37.498 6.77539 36.4141C4.78767 35.33 3.11687 33.7453 1.92969 31.8174C0.742532 29.8895 0.0801828 27.6848 0.00683594 25.4219L0 25.001L0.00683594 24.5791C0.0796903 22.3341 0.732263 20.1459 1.90234 18.2285C3.07247 16.3111 4.72029 14.7301 6.68359 13.6387C8.64688 12.5473 10.8593 11.9827 13.1055 12.001ZM69.998 21.001C72.2072 21.001 73.998 22.7918 73.998 25.001C73.9979 27.21 72.2071 29.001 69.998 29.001H53.998C51.789 29.001 49.9982 27.21 49.998 25.001C49.998 22.7918 51.7889 21.001 53.998 21.001H69.998ZM16.9814 21.1035C16.6656 21.0837 16.3536 21.18 16.1035 21.374L15.9814 21.4814L11.7002 25.7607L10.0195 24.0811L9.89746 23.9736C9.64732 23.7797 9.33442 23.6842 9.01855 23.7041C8.7028 23.7241 8.40538 23.8583 8.18164 24.082C7.95791 24.3058 7.82272 24.6032 7.80273 24.9189C7.78281 25.2348 7.87935 25.5477 8.07324 25.7979L8.18066 25.9199L10.7812 28.5195L10.9033 28.6279C11.1313 28.8047 11.4117 28.9004 11.7002 28.9004C11.9887 28.9004 12.2691 28.8047 12.4971 28.6279L12.6191 28.5195L17.8193 23.3193L17.9268 23.1973C18.1207 22.9472 18.2171 22.6352 18.1973 22.3193C18.1774 22.0034 18.0432 21.7053 17.8193 21.4814C17.5955 21.2576 17.2974 21.1234 16.9814 21.1035Z" fill="url(#paint0_linear_3055_41294)"/>
<path d="M111.188 25.7412V38C111.105 37.9761 111.034 37.9402 110.963 37.8926L101.689 32.5635C100.601 31.9302 99.9981 31.285 99.998 29.5527V20.2441C99.9981 19.8859 100.022 19.5987 100.093 19.3359L111.188 25.7412ZM123.903 19.3359C123.974 19.5987 123.998 19.8859 123.998 20.2441V29.5527C123.998 31.285 123.407 31.9302 122.307 32.5635L113.045 37.8926C112.962 37.9402 112.891 37.9761 112.809 38V25.7412L123.903 19.3359ZM169 21C171.209 21 173 22.7909 173 25C173 27.2091 171.209 29 169 29H153C150.791 29 149 27.2091 149 25C149 22.7909 150.791 21 153 21H169ZM117.055 21.415L112.004 24.3066L100.85 17.9141C101.039 17.735 101.252 17.5916 101.512 17.4482L105.854 14.9512L117.055 21.415ZM112.004 12C112.702 12 113.423 12.2274 114.145 12.6455L122.496 17.4482C122.756 17.5916 122.969 17.7349 123.146 17.9141L118.699 20.4717L107.45 14.0195L109.852 12.6455C110.573 12.2274 111.294 12 112.004 12Z" fill="url(#paint1_linear_3055_41294)"/>
<path d="M203.623 29.5195C205.043 29.5195 206.194 30.7469 206.194 32.2598C206.194 33.7726 205.052 35 203.623 35C202.203 35 201.052 33.7631 201.052 32.2598C201.052 30.7469 202.203 29.5195 203.623 29.5195ZM216.472 29.5098C217.891 29.51 219.043 30.7374 219.043 32.25C219.043 33.7722 217.9 34.9998 216.472 35C215.052 35 213.899 33.7629 213.899 32.25C213.9 30.7373 215.052 29.5098 216.472 29.5098ZM211.311 15C212.909 15 213.739 15.8943 213.739 17.5879V29.748C213.168 30.395 212.864 31.2796 212.864 32.25C212.864 32.3831 212.873 32.5163 212.891 32.6494H207.203C207.221 32.5259 207.23 32.3928 207.23 32.2598C207.23 30.138 205.614 28.4063 203.623 28.4062C201.632 28.4062 200.007 30.138 200.007 32.2598C200.007 32.3929 200.016 32.5259 200.034 32.6494H199.427C197.829 32.6494 196.998 31.765 196.998 30.0713V17.5879C196.998 15.8943 197.829 15 199.427 15H211.311ZM217.337 20.252C218.212 20.252 218.801 20.4709 219.328 21.0986L222.364 24.7529C222.855 25.3427 222.998 25.7806 222.998 26.7129V30.0713C222.998 31.7553 222.177 32.6493 220.605 32.6494H220.061C220.078 32.5163 220.087 32.3831 220.087 32.25C220.087 30.1283 218.427 28.3965 216.436 28.3965C215.9 28.3965 215.39 28.5488 214.962 28.8057V20.252H217.337ZM267.998 21C270.207 21 271.998 22.7909 271.998 25C271.998 27.2091 270.207 29 267.998 29H251.998C249.789 29 247.998 27.2091 247.998 25C247.998 22.7909 249.789 21 251.998 21H267.998ZM216.462 22.0127V25.457C216.462 25.999 216.775 26.3221 217.274 26.3223H221.274C221.239 26.1037 221.141 25.9231 220.998 25.752L218.274 22.498C217.926 22.0889 217.659 22.0127 217.248 22.0127H216.462Z" fill="url(#paint2_linear_3055_41294)"/>
<path d="M288.924 50C289.988 50 290.849 49.1591 290.849 48.0887V33.9195C291.483 33.6392 293.865 32.7217 297.589 32.7217C306.964 32.7217 312.843 37.3344 321.762 37.3344C325.714 37.3344 327.184 36.9012 329.11 36.0346C330.858 35.2448 331.998 33.9195 331.998 31.5748V5.70846C331.998 4.33232 330.833 3.54229 329.363 3.54229C328.121 3.54229 325.79 4.61264 321.432 4.61264C312.513 4.61264 306.66 0 297.26 0C293.307 0 291.812 0.433233 289.887 1.29969C288.138 2.0897 286.998 3.41488 286.998 5.73395V48.0887C286.998 49.1336 287.885 50 288.924 50Z" fill="url(#paint3_linear_3055_41294)"/>
<defs>
<linearGradient id="paint0_linear_3055_41294" x1="-9.90115" y1="23.3054" x2="68.2094" y2="-2.11334" gradientUnits="userSpaceOnUse">
<stop stop-color="#01CC47"/>
<stop offset="1" stop-color="#ABFF44"/>
</linearGradient>
<linearGradient id="paint1_linear_3055_41294" x1="90.2302" y1="23.3043" x2="167.487" y2="-1.4983" gradientUnits="userSpaceOnUse">
<stop stop-color="#01CC47"/>
<stop offset="1" stop-color="#ABFF44"/>
</linearGradient>
<linearGradient id="paint2_linear_3055_41294" x1="186.963" y1="23.6956" x2="260.918" y2="-8.01466" gradientUnits="userSpaceOnUse">
<stop stop-color="#01CC47"/>
<stop offset="1" stop-color="#ABFF44"/>
</linearGradient>
<linearGradient id="paint3_linear_3055_41294" x1="280.977" y1="21.7391" x2="332.958" y2="16.39" gradientUnits="userSpaceOnUse">
<stop stop-color="#01CC47"/>
<stop offset="1" stop-color="#ABFF44"/>
</linearGradient>
</defs>
</svg>
