<svg width="333" height="50" viewBox="0 0 333 50" fill="none" xmlns="http://www.w3.org/2000/svg">
<path d="M124.81 38C124.893 37.9761 124.964 37.9403 125.047 37.8925L134.309 32.5634C135.409 31.9302 136 31.285 136 29.5524V20.2445C136 19.886 135.976 19.5993 135.905 19.3364L124.81 25.7408V38ZM123.19 38V25.7408L112.095 19.3364C112.024 19.5993 112 19.886 112 20.2445V29.5524C112 31.285 112.603 31.9302 113.691 32.5634L122.965 37.8925C123.036 37.9403 123.107 37.9761 123.19 38ZM124.006 24.307L129.057 21.4155L117.855 14.9513L113.514 17.4485C113.254 17.5919 113.041 17.7353 112.852 17.9145L124.006 24.307ZM130.701 20.4715L135.148 17.9145C134.971 17.7353 134.758 17.5919 134.498 17.4485L126.147 12.6452C125.425 12.227 124.704 12 124.006 12C123.296 12 122.575 12.227 121.853 12.6452L119.452 14.0193L130.701 20.4715Z" fill="#BCBCBC"/>
<path d="M161.002 25C161.002 22.7909 162.793 21 165.002 21H181.002C183.211 21 185.002 22.7909 185.002 25C185.002 27.2091 183.211 29 181.002 29H165.002C162.793 29 161.002 27.2091 161.002 25Z" fill="#BCBCBC"/>
<path d="M225.741 29.7479V17.588C225.741 15.8944 224.911 15 223.313 15H211.429C209.83 15 209 15.8944 209 17.588V30.0714C209 31.765 209.83 32.6499 211.429 32.6499H212.036C212.018 32.5262 212.009 32.393 212.009 32.2598C212.009 30.1379 213.634 28.4063 215.625 28.4063C217.616 28.4063 219.232 30.1379 219.232 32.2598C219.232 32.393 219.223 32.5262 219.205 32.6499H224.893C224.875 32.5166 224.866 32.3835 224.866 32.2502C224.866 31.2798 225.17 30.3949 225.741 29.7479ZM226.964 20.2521V28.8059C227.393 28.549 227.902 28.3968 228.437 28.3968C230.429 28.3968 232.089 30.1284 232.089 32.2502C232.089 32.3835 232.08 32.5166 232.062 32.6499H232.607C234.179 32.6499 235 31.7555 235 30.0714V26.7127C235 25.7803 234.857 25.3425 234.366 24.7526L231.33 21.099C230.804 20.471 230.214 20.2521 229.339 20.2521H226.964ZM229.277 26.3225C228.777 26.3225 228.464 25.9991 228.464 25.4567V22.0124H229.25C229.661 22.0124 229.929 22.0885 230.277 22.4976L233 25.7517C233.143 25.9229 233.241 26.1037 233.277 26.3225H229.277ZM215.625 35C217.054 35 218.196 33.7726 218.196 32.2598C218.196 30.7469 217.045 29.5195 215.625 29.5195C214.205 29.5195 213.054 30.7469 213.054 32.2598C213.054 33.7631 214.205 35 215.625 35ZM228.473 35C229.902 35 231.045 33.7726 231.045 32.2502C231.045 30.7374 229.893 29.51 228.473 29.51C227.054 29.51 225.902 30.7374 225.902 32.2502C225.902 33.7631 227.054 35 228.473 35Z" fill="#BCBCBC"/>
<path d="M260 25C260 22.7909 261.791 21 264 21H280C282.209 21 284 22.7909 284 25C284 27.2091 282.209 29 280 29H264C261.791 29 260 27.2091 260 25Z" fill="#BCBCBC"/>
<path d="M310.984 38C311.528 38 311.968 37.5627 311.968 37.0061V29.6382C312.292 29.4924 313.51 29.0153 315.413 29.0153C320.205 29.0153 323.21 31.4139 327.768 31.4139C329.788 31.4139 330.539 31.1886 331.524 30.738C332.417 30.3273 333 29.6382 333 28.4189V14.9684C333 14.2528 332.404 13.842 331.653 13.842C331.019 13.842 329.827 14.3986 327.6 14.3986C323.041 14.3986 320.05 12 315.245 12C313.225 12 312.461 12.2253 311.476 12.6758C310.583 13.0866 310 13.7757 310 14.9817V37.0061C310 37.5495 310.453 38 310.984 38Z" fill="#BCBCBC"/>
<path d="M25.2041 0.000976562C29.5241 0.0360788 33.7617 1.18964 37.5029 3.34961C41.2739 5.52674 44.4111 8.65116 46.6035 12.4131C48.7958 16.1749 49.9678 20.4441 50.0029 24.7979C50.0381 29.1518 48.935 33.4395 46.8037 37.2363C44.6725 41.033 41.5867 44.2076 37.8516 46.4453C34.1164 48.683 29.8612 49.906 25.5078 49.9941C21.1543 50.0822 16.853 49.032 13.0303 46.9473C9.2075 44.8625 5.99511 41.8159 3.71191 38.1084C1.42873 34.4009 0.153743 30.1613 0.0126953 25.8096L0 24.999L0.0126953 24.1895C0.152723 19.872 1.40877 15.664 3.65918 11.9766C5.90958 8.28926 9.07769 5.24829 12.8535 3.14941C16.6293 1.05062 20.8843 -0.034042 25.2041 0.000976562ZM32.6592 17.5049C32.0516 17.4667 31.4507 17.6513 30.9697 18.0244L30.7354 18.2324L22.502 26.4619L19.2695 23.2324L19.0342 23.0244C18.5531 22.6516 17.9522 22.4675 17.3447 22.5059C16.7374 22.5442 16.1647 22.8022 15.7344 23.2324C15.304 23.6627 15.0452 24.2354 15.0068 24.8428C14.9685 25.4502 15.1535 26.0512 15.5264 26.5322L15.7334 26.7666L20.7344 31.7666L20.9688 31.9746C21.4072 32.3148 21.947 32.499 22.502 32.499C23.0568 32.499 23.5958 32.3146 24.0342 31.9746L24.2695 31.7666L34.2705 21.7666L34.4775 21.5322C34.8507 21.0512 35.0363 20.4503 34.998 19.8428C34.9598 19.2354 34.7008 18.6629 34.2705 18.2324C33.84 17.802 33.2668 17.5431 32.6592 17.5049ZM66 21C68.2091 21 70 22.7909 70 25C69.9999 27.2091 68.2091 29 66 29C63.7909 29 62.0001 27.2091 62 25C62 22.7909 63.7909 21 66 21ZM82 21C84.2091 21 86 22.7909 86 25C85.9999 27.2091 84.2091 29 82 29C79.7909 29 78.0001 27.2091 78 25C78 22.7909 79.7909 21 82 21Z" fill="url(#paint0_linear_3055_41269)"/>
<defs>
<linearGradient id="paint0_linear_3055_41269" x1="-11.507" y1="21.7387" x2="85.1474" y2="2.7298" gradientUnits="userSpaceOnUse">
<stop stop-color="#01CC47"/>
<stop offset="1" stop-color="#ABFF44"/>
</linearGradient>
</defs>
</svg>
