<svg width="321" height="50" viewBox="0 0 321 50" fill="none" xmlns="http://www.w3.org/2000/svg">
<path d="M13.1055 12.001C15.3516 12.0192 17.5547 12.619 19.5 13.7422C21.4608 14.8743 23.0925 16.4989 24.2324 18.4551C25.3723 20.4112 25.9817 22.6315 26 24.8955C26.0183 27.1595 25.4441 29.389 24.3359 31.3633C23.2278 33.3375 21.6238 34.9887 19.6816 36.1523C17.7394 37.316 15.5264 37.9522 13.2627 37.998C10.9992 38.0438 8.763 37.4971 6.77539 36.4131C4.78767 35.329 3.11687 33.7443 1.92969 31.8164C0.74267 29.8886 0.0801635 27.6837 0.00683594 25.4209L0 25L0.00683594 24.5791C0.079638 22.3341 0.732295 20.1459 1.90234 18.2285C3.07248 16.3111 4.72026 14.7291 6.68359 13.6377C8.64683 12.5464 10.8594 11.9827 13.1055 12.001ZM69.998 21C72.2071 21 73.9979 22.791 73.998 25C73.998 27.2091 72.2072 29 69.998 29H53.998C51.7889 29 49.998 27.2091 49.998 25C49.9982 22.791 51.789 21 53.998 21H69.998ZM16.9814 21.1025C16.6657 21.0828 16.3535 21.1792 16.1035 21.373L15.9814 21.4814L11.7002 25.7607L10.0195 24.0811L9.89746 23.9736C9.64732 23.7797 9.33442 23.6832 9.01855 23.7031C8.70291 23.7231 8.40535 23.8575 8.18164 24.0811C7.95785 24.3048 7.82266 24.6031 7.80273 24.9189C7.78286 25.2347 7.87941 25.5468 8.07324 25.7969L8.18066 25.9189L10.7812 28.5195L10.9033 28.627C11.1313 28.8038 11.4116 28.9004 11.7002 28.9004C11.9887 28.9004 12.2691 28.8038 12.4971 28.627L12.6191 28.5195L17.8193 23.3193L17.9268 23.1973C18.1208 22.9471 18.2171 22.6343 18.1973 22.3184C18.1773 22.0026 18.043 21.7052 17.8193 21.4814C17.5955 21.2576 17.2974 21.1224 16.9814 21.1025Z" fill="url(#paint0_linear_3055_41320)"/>
<path d="M213.739 29.7479V17.588C213.739 15.8944 212.909 15 211.311 15H199.427C197.828 15 196.998 15.8944 196.998 17.588V30.0714C196.998 31.765 197.828 32.6499 199.427 32.6499H200.034C200.016 32.5262 200.007 32.393 200.007 32.2598C200.007 30.1379 201.632 28.4063 203.623 28.4063C205.614 28.4063 207.23 30.1379 207.23 32.2598C207.23 32.393 207.221 32.5262 207.203 32.6499H212.891C212.873 32.5166 212.864 32.3835 212.864 32.2502C212.864 31.2798 213.168 30.3949 213.739 29.7479ZM214.962 20.2521V28.8059C215.391 28.549 215.9 28.3968 216.436 28.3968C218.427 28.3968 220.087 30.1284 220.087 32.2502C220.087 32.3835 220.078 32.5166 220.061 32.6499H220.605C222.177 32.6499 222.998 31.7555 222.998 30.0714V26.7127C222.998 25.7803 222.855 25.3425 222.364 24.7526L219.328 21.099C218.802 20.471 218.212 20.2521 217.337 20.2521H214.962ZM217.275 26.3225C216.775 26.3225 216.462 25.9991 216.462 25.4567V22.0124H217.248C217.659 22.0124 217.927 22.0885 218.275 22.4976L220.998 25.7517C221.141 25.9229 221.239 26.1037 221.275 26.3225H217.275ZM203.623 35C205.052 35 206.194 33.7726 206.194 32.2598C206.194 30.7469 205.043 29.5195 203.623 29.5195C202.203 29.5195 201.052 30.7469 201.052 32.2598C201.052 33.7631 202.203 35 203.623 35ZM216.471 35C217.9 35 219.043 33.7726 219.043 32.2502C219.043 30.7374 217.891 29.51 216.471 29.51C215.052 29.51 213.9 30.7374 213.9 32.2502C213.9 33.7631 215.052 35 216.471 35Z" fill="#BCBCBC"/>
<path d="M247.998 25C247.998 22.7909 249.789 21 251.998 21H267.998C270.207 21 271.998 22.7909 271.998 25C271.998 27.2091 270.207 29 267.998 29H251.998C249.789 29 247.998 27.2091 247.998 25Z" fill="#BCBCBC"/>
<path d="M298.982 38C299.526 38 299.967 37.5627 299.967 37.0061V29.6382C300.29 29.4924 301.508 29.0153 303.411 29.0153C308.203 29.0153 311.208 31.4139 315.766 31.4139C317.786 31.4139 318.538 31.1886 319.522 30.738C320.415 30.3273 320.998 29.6382 320.998 28.4189V14.9684C320.998 14.2528 320.402 13.842 319.651 13.842C319.017 13.842 317.825 14.3986 315.598 14.3986C311.039 14.3986 308.048 12 303.243 12C301.223 12 300.459 12.2253 299.474 12.6758C298.581 13.0866 297.998 13.7757 297.998 14.9817V37.0061C297.998 37.5495 298.451 38 298.982 38Z" fill="#BCBCBC"/>
<path d="M110.445 26.4248V50C110.287 49.9541 110.151 49.8847 110.015 49.793L92.2402 39.5449C90.1545 38.3271 88.9981 37.0865 88.998 33.7549V15.8545C88.9981 15.1653 89.0437 14.6139 89.1797 14.1084L110.445 26.4248ZM134.816 14.1084C134.952 14.6139 134.998 15.1653 134.998 15.8545V33.7549C134.998 37.0865 133.864 38.3271 131.756 39.5449L114.005 49.793C113.846 49.8847 113.709 49.9541 113.551 50V26.4248L134.816 14.1084ZM152.998 21C155.207 21 156.998 22.7909 156.998 25C156.998 27.2091 155.207 29 152.998 29C150.789 29 148.998 27.2091 148.998 25C148.998 22.7909 150.789 21 152.998 21ZM168.998 21C171.207 21 172.998 22.7909 172.998 25C172.998 27.2091 171.207 29 168.998 29C166.789 29 164.998 27.2091 164.998 25C164.998 22.7909 166.789 21 168.998 21ZM121.69 18.1064L112.01 23.667L90.6309 11.374C90.9935 11.0295 91.4018 10.7532 91.9004 10.4775L100.221 5.67578L121.69 18.1064ZM112.01 0C113.347 8.72827e-05 114.731 0.437063 116.113 1.24121L132.119 10.4775C132.618 10.7533 133.026 11.0294 133.366 11.374L124.841 16.291L103.281 3.88281L107.883 1.24121C109.266 0.436982 110.65 0 112.01 0Z" fill="url(#paint1_linear_3055_41320)"/>
<defs>
<linearGradient id="paint0_linear_3055_41320" x1="-9.90115" y1="23.3044" x2="68.2094" y2="-2.11432" gradientUnits="userSpaceOnUse">
<stop stop-color="#01CC47"/>
<stop offset="1" stop-color="#ABFF44"/>
</linearGradient>
<linearGradient id="paint1_linear_3055_41320" x1="77.7586" y1="21.7391" x2="172.327" y2="3.57325" gradientUnits="userSpaceOnUse">
<stop stop-color="#01CC47"/>
<stop offset="1" stop-color="#ABFF44"/>
</linearGradient>
</defs>
</svg>
