<svg width="321" height="38" viewBox="0 0 321 38" fill="none" xmlns="http://www.w3.org/2000/svg">
<path d="M13.1055 6.00098C15.3516 6.01923 17.5547 6.61905 19.5 7.74219C21.4608 8.8743 23.0925 10.4989 24.2324 12.4551C25.3723 14.4112 25.9817 16.6315 26 18.8955C26.0183 21.1595 25.4441 23.389 24.3359 25.3633C23.2278 27.3375 21.6238 28.9887 19.6816 30.1523C17.7394 31.316 15.5264 31.9522 13.2627 31.998C10.9992 32.0438 8.763 31.4971 6.77539 30.4131C4.78767 29.329 3.11687 27.7443 1.92969 25.8164C0.74267 23.8886 0.0801635 21.6837 0.00683594 19.4209L0 19L0.00683594 18.5791C0.079638 16.3341 0.732295 14.1459 1.90234 12.2285C3.07248 10.3111 4.72026 8.72914 6.68359 7.6377C8.64683 6.5464 10.8594 5.98272 13.1055 6.00098ZM69.998 15C72.2071 15 73.9979 16.791 73.998 19C73.998 21.2091 72.2072 23 69.998 23H53.998C51.7889 23 49.998 21.2091 49.998 19C49.9982 16.791 51.789 15 53.998 15H69.998ZM16.9814 15.1025C16.6657 15.0828 16.3535 15.1792 16.1035 15.373L15.9814 15.4814L11.7002 19.7607L10.0195 18.0811L9.89746 17.9736C9.64732 17.7797 9.33442 17.6832 9.01855 17.7031C8.70291 17.7231 8.40535 17.8575 8.18164 18.0811C7.95785 18.3048 7.82266 18.6031 7.80273 18.9189C7.78286 19.2347 7.87941 19.5468 8.07324 19.7969L8.18066 19.9189L10.7812 22.5195L10.9033 22.627C11.1313 22.8038 11.4116 22.9004 11.7002 22.9004C11.9887 22.9004 12.2691 22.8038 12.4971 22.627L12.6191 22.5195L17.8193 17.3193L17.9268 17.1973C18.1208 16.9471 18.2171 16.6343 18.1973 16.3184C18.1773 16.0026 18.043 15.7052 17.8193 15.4814C17.5955 15.2576 17.2974 15.1224 16.9814 15.1025Z" fill="url(#paint0_linear_3055_41306)"/>
<path d="M111.188 19.7412V32C111.105 31.9761 111.034 31.9402 110.963 31.8926L101.689 26.5635C100.601 25.9302 99.9981 25.285 99.998 23.5527V14.2441C99.9981 13.8859 100.022 13.5987 100.093 13.3359L111.188 19.7412ZM123.903 13.3359C123.974 13.5987 123.998 13.8859 123.998 14.2441V23.5527C123.998 25.285 123.407 25.9302 122.307 26.5635L113.045 31.8926C112.962 31.9402 112.891 31.9761 112.809 32V19.7412L123.903 13.3359ZM169 15C171.209 15 173 16.7909 173 19C173 21.2091 171.209 23 169 23H153C150.791 23 149 21.2091 149 19C149 16.7909 150.791 15 153 15H169ZM117.055 15.415L112.004 18.3066L100.85 11.9141C101.039 11.735 101.252 11.5916 101.512 11.4482L105.854 8.95117L117.055 15.415ZM112.004 6C112.702 6 113.423 6.22737 114.145 6.64551L122.496 11.4482C122.756 11.5916 122.969 11.7349 123.146 11.9141L118.699 14.4717L107.45 8.01953L109.852 6.64551C110.573 6.22737 111.294 6.00001 112.004 6Z" fill="url(#paint1_linear_3055_41306)"/>
<path d="M298.982 32C299.526 32 299.967 31.5627 299.967 31.0061V23.6382C300.29 23.4924 301.508 23.0153 303.411 23.0153C308.203 23.0153 311.208 25.4139 315.766 25.4139C317.786 25.4139 318.538 25.1886 319.522 24.738C320.415 24.3273 320.998 23.6382 320.998 22.4189V8.9684C320.998 8.25281 320.402 7.84199 319.651 7.84199C319.017 7.84199 317.825 8.39857 315.598 8.39857C311.039 8.39857 308.048 6 303.243 6C301.223 6 300.459 6.22528 299.474 6.67584C298.581 7.08665 297.998 7.77574 297.998 8.98165V31.0061C297.998 31.5495 298.451 32 298.982 32Z" fill="#BCBCBC"/>
<path d="M197.738 27.5869C200.468 27.5869 202.684 29.9195 202.684 32.7939C202.683 35.6682 200.485 38 197.738 38C195.008 37.9999 192.793 35.6501 192.793 32.7939C192.793 29.9196 195.008 27.587 197.738 27.5869ZM222.446 27.5693C225.176 27.5693 227.392 29.901 227.392 32.7754C227.392 35.6679 225.194 38 222.446 38C219.716 37.9999 217.502 35.6497 217.502 32.7754C217.502 29.9011 219.716 27.5695 222.446 27.5693ZM212.522 0C215.596 0.000114592 217.192 1.69936 217.192 4.91699V28.0215C216.094 29.2508 215.51 30.9316 215.51 32.7754C215.51 33.0285 215.527 33.282 215.562 33.5352H204.624C204.658 33.3003 204.675 33.047 204.675 32.7939C204.675 28.7625 201.567 25.4717 197.738 25.4717C193.909 25.4718 190.784 28.7626 190.784 32.7939C190.784 33.047 190.802 33.3003 190.836 33.5352H189.668C186.595 33.535 184.998 31.8535 184.998 28.6357V4.91699C184.998 1.69939 186.595 0.000150265 189.668 0H212.522ZM224.112 9.97949C225.795 9.97954 226.928 10.3948 227.941 11.5879L233.779 18.5303C234.723 19.651 234.998 20.4826 234.998 22.2539V28.6357C234.998 31.8354 233.418 33.5351 230.396 33.5352H229.349C229.383 33.282 229.4 33.0285 229.4 32.7754C229.4 28.744 226.207 25.4542 222.378 25.4541C221.348 25.4541 220.369 25.7434 219.545 26.2314V9.97949H224.112ZM251.998 15C254.207 15 255.998 16.7909 255.998 19C255.998 21.2091 254.207 23 251.998 23C249.789 23 247.998 21.2091 247.998 19C247.998 16.7909 249.789 15 251.998 15ZM267.998 15C270.207 15 271.998 16.7909 271.998 19C271.998 21.2091 270.207 23 267.998 23C265.789 23 263.998 21.2091 263.998 19C263.998 16.7909 265.789 15 267.998 15ZM222.43 19.8682C222.43 20.8984 223.031 21.5127 223.992 21.5127H231.685C231.616 21.097 231.427 20.7531 231.152 20.4277L225.915 14.2451C225.246 13.468 224.73 13.3233 223.94 13.3232H222.43V19.8682Z" fill="url(#paint2_linear_3055_41306)"/>
<defs>
<linearGradient id="paint0_linear_3055_41306" x1="-9.90115" y1="17.3044" x2="68.2094" y2="-8.11432" gradientUnits="userSpaceOnUse">
<stop stop-color="#01CC47"/>
<stop offset="1" stop-color="#ABFF44"/>
</linearGradient>
<linearGradient id="paint1_linear_3055_41306" x1="90.2302" y1="17.3043" x2="167.487" y2="-7.4983" gradientUnits="userSpaceOnUse">
<stop stop-color="#01CC47"/>
<stop offset="1" stop-color="#ABFF44"/>
</linearGradient>
<linearGradient id="paint2_linear_3055_41306" x1="173.357" y1="16.5217" x2="268.404" y2="-8.35958" gradientUnits="userSpaceOnUse">
<stop stop-color="#01CC47"/>
<stop offset="1" stop-color="#ABFF44"/>
</linearGradient>
</defs>
</svg>
