<svg width="24" height="18" fill="none"><g clip-path="url(#a)"><path fill="#000" d="M2 3c0-.199.105-.39.293-.53.187-.141.442-.22.707-.22h18c.265 0 .52.079.707.22.188.14.293.331.293.53v4.125c-.663 0-1.299.198-1.768.55-.469.35-.732.828-.732 1.325s.263.974.732 1.326c.47.351 1.105.549 1.768.549V15c0 .199-.105.39-.293.53a1.2 1.2 0 0 1-.707.22H3a1.2 1.2 0 0 1-.707-.22C2.105 15.39 2 15.2 2 15zm6.085 11.25c.103-.22.295-.41.548-.545.253-.134.556-.207.867-.207s.614.073.867.207c.253.135.445.325.548.545H20v-2.226c-.751-.28-1.384-.71-1.826-1.245-.441-.534-.676-1.15-.676-1.779s.235-1.245.676-1.78S19.25 6.256 20 5.977V3.75h-9.085c-.103.22-.295.41-.548.545a1.86 1.86 0 0 1-.867.207c-.31 0-.614-.073-.867-.207a1.23 1.23 0 0 1-.548-.545H4v10.5zm1.415-6c-.398 0-.78-.119-1.06-.33-.282-.21-.44-.497-.44-.795s.158-.585.44-.795C8.72 6.119 9.101 6 9.5 6s.78.119 1.06.33c.282.21.44.497.44.795s-.158.585-.44.795c-.28.211-.662.33-1.06.33m0 3.75c-.398 0-.78-.118-1.06-.33-.282-.21-.44-.497-.44-.795s.158-.585.44-.796c.28-.21.662-.329 1.06-.329s.78.119 1.06.33c.282.21.44.497.44.795s-.158.585-.44.796c-.28.21-.662.329-1.06.329"/></g><defs><clipPath id="a"><path fill="#fff" d="M0 0h24v18H0z"/></clipPath></defs></svg>