<svg width="16" height="16" fill="none"><mask id="a" fill="#fff"><path fill-rule="evenodd" d="M5.709.258c.117 0 .23.048.313.133s.13.202.13.323v3.008c0 .121-.047.237-.13.323a.437.437 0 0 1-.627 0 .46.46 0 0 1-.13-.323V.714c0-.121.047-.237.13-.323A.44.44 0 0 1 5.71.258" clip-rule="evenodd"/></mask><path fill="#000" fill-rule="evenodd" d="M5.709.258c.117 0 .23.048.313.133s.13.202.13.323v3.008c0 .121-.047.237-.13.323a.437.437 0 0 1-.627 0 .46.46 0 0 1-.13-.323V.714c0-.121.047-.237.13-.323A.44.44 0 0 1 5.71.258" clip-rule="evenodd"/><path fill="#FC7416" d="M5.709.258v1zm0 3.92v1zm0-2.92a.56.56 0 0 1-.404-.17L6.74-.306a1.44 1.44 0 0 0-1.03-.436zm-.404-.17a.54.54 0 0 1-.153-.374h2c0-.378-.145-.745-.413-1.02zM5.152.714v3.008h2V.714zm0 3.008c0-.135.052-.27.153-.374L6.74 4.742c.268-.275.413-.642.413-1.02zm.153-.374a.56.56 0 0 1 .404-.17v2c.392 0 .762-.16 1.03-.436zm.404-.17c.157 0 .301.065.403.17L4.678 4.742c.269.276.639.436 1.03.436zm.403.17c.102.104.154.239.154.374h-2c0 .378.145.745.412 1.02zm.154.374V.714h-2v3.008zm0-3.008c0 .135-.052.27-.154.374L4.678-.306a1.46 1.46 0 0 0-.412 1.02zm-.154.374a.56.56 0 0 1-.403.17v-2c-.392 0-.762.16-1.03.436z" mask="url(#a)"/><mask id="b" fill="#fff"><path fill-rule="evenodd" d="M2.562 3.148c.5-.123 1.012-.03 1.542.252.433.23.74.335.978.386.239.051.428.052.657.052v.912h-.008c-.23 0-.497 0-.828-.07-.336-.072-.72-.211-1.206-.47-.39-.207-.682-.236-.929-.175-.259.063-.532.241-.847.576A3.77 3.77 0 0 0 .894 6.78c-.044.75.087 2.23.74 3.676.221.493.536 1.172.92 1.704.191.265.383.47.568.595.18.122.329.155.464.131 1.384-.245 1.644-.25 1.914-.25h.46v.911h-.473c-.187 0-.407 0-1.75.238-.417.074-.792-.058-1.103-.269-.306-.207-.57-.504-.792-.813-.446-.617-.794-1.378-1.013-1.863C.103 9.23-.045 7.587.01 6.709l.002-.015.001-.015a4.7 4.7 0 0 1 1.27-2.702c.375-.398.791-.71 1.28-.83" clip-rule="evenodd"/></mask><path fill="#000" fill-rule="evenodd" d="M2.562 3.148c.5-.123 1.012-.03 1.542.252.433.23.74.335.978.386.239.051.428.052.657.052v.912h-.008c-.23 0-.497 0-.828-.07-.336-.072-.72-.211-1.206-.47-.39-.207-.682-.236-.929-.175-.259.063-.532.241-.847.576A3.77 3.77 0 0 0 .894 6.78c-.044.75.087 2.23.74 3.676.221.493.536 1.172.92 1.704.191.265.383.47.568.595.18.122.329.155.464.131 1.384-.245 1.644-.25 1.914-.25h.46v.911h-.473c-.187 0-.407 0-1.75.238-.417.074-.792-.058-1.103-.269-.306-.207-.57-.504-.792-.813-.446-.617-.794-1.378-1.013-1.863C.103 9.23-.045 7.587.01 6.709l.002-.015.001-.015a4.7 4.7 0 0 1 1.27-2.702c.375-.398.791-.71 1.28-.83" clip-rule="evenodd"/><path fill="#FC7416" d="m4.104 3.4.47-.883zm.978.386.21-.978h-.003zm.657.052h1v-1h-1zm0 .912v1h1v-1zm-.836-.07-.209.977zm-1.206-.47.47-.883h-.001zm-.929-.175-.239-.972zm-.847.576-.728-.686h-.001zM.894 6.78l-.992-.127-.004.034-.002.035zm.74 3.676.911-.41zm.92 1.704-.811.585zm.568.595-.562.827h.001zm.464.131.173.985h.001zm2.374-.25h1v-1h-1zm0 .911v1h1v-1zm-2.223.238-.175-.985zm-1.103-.269.562-.827zm-.792-.813-.81.586zM.829 10.841l.912-.411zM.01 6.709l-.996-.091v.014l-.002.014zm.002-.015-.993-.12-.002.014-.001.015zm.001-.015-.992-.124v.004zm1.27-2.702.729.685zm1.518.142c.205-.05.464-.033.834.164l.938-1.766c-.69-.367-1.454-.536-2.25-.34zm.833.164c.495.263.89.407 1.241.481l.414-1.956c-.127-.027-.344-.094-.714-.29zm1.239.48c.352.076.637.075.866.075v-2c-.228 0-.323-.003-.447-.03zm-.134-.925v.912h2v-.912zm1-.088h-.008v2h.008zm-.008 0c-.224 0-.4-.002-.62-.049l-.417 1.956c.443.095.803.093 1.037.093zM5.11 3.7c-.224-.048-.52-.148-.944-.374l-.94 1.765c.549.292 1.02.47 1.467.565zm-.945-.375c-.55-.292-1.096-.395-1.637-.263l.478 1.943c-.01.002-.012-.001.007.002.025.004.093.02.214.085zm-1.637-.262c-.523.128-.956.458-1.336.861l1.456 1.371c.25-.265.363-.292.358-.29zm-1.337.862a4.77 4.77 0 0 0-1.29 2.728l1.984.255c.06-.462.222-1.037.763-1.613zM-.104 6.723c-.053.89.1 2.533.826 4.145l1.823-.822c-.577-1.28-.689-2.596-.653-3.205zm.826 4.145c.218.485.57 1.253 1.02 1.878l1.623-1.17c-.317-.44-.595-1.03-.82-1.53zm1.02 1.878c.226.313.498.62.818.837l1.125-1.653c-.05-.035-.163-.137-.32-.354zm.819.838c.33.223.739.369 1.198.288l-.346-1.97a.5.5 0 0 1 .217.009c.055.014.074.031.053.018zm1.2.288c1.372-.243 1.561-.236 1.74-.236v-2c-.363 0-.694.02-2.09.267zm1.74-.236h.459v-2H5.5zm-.541-1v.912h2v-.912zm1-.088h-.473v2h.473zm-.473 0c-.28 0-.575.014-1.925.253l.349 1.97c1.336-.237 1.483-.223 1.576-.223zm-1.925.253c-.088.016-.203 0-.366-.111l-1.124 1.654c.458.311 1.094.559 1.84.427zm-.366-.111c-.17-.116-.354-.31-.544-.571l-1.62 1.17c.256.356.6.756 1.04 1.055zm-.544-.571c-.377-.524-.689-1.196-.91-1.69l-1.824.822c.215.478.6 1.329 1.113 2.039zm-.91-1.69c-.652-1.443-.78-2.921-.734-3.658l-1.996-.125c-.064 1.02.105 2.83.906 4.606zM1.005 6.8l.002-.014-1.992-.182-.002.015zm-.002.016.002-.015-1.985-.241-.002.014zm.002-.011a3.7 3.7 0 0 1 1.006-2.142L.556 3.292A5.7 5.7 0 0 0-.98 6.555zm1.006-2.142c.31-.33.565-.488.79-.544l-.479-1.942c-.752.186-1.328.648-1.768 1.116z" mask="url(#b)"/><mask id="c" fill="#fff"><path fill-rule="evenodd" d="M3.83 2.01c.663.653 1.022 1.444 1.022 2.056 0 .121.047.237.13.323a.437.437 0 0 0 .627 0 .46.46 0 0 0 .13-.323c0-.934-.518-1.948-1.297-2.715C3.654.577 2.546 0 1.284 0A.44.44 0 0 0 .97.134a.463.463 0 0 0 0 .644.44.44 0 0 0 .314.134c.994 0 1.891.455 2.545 1.098" clip-rule="evenodd"/></mask><path fill="#000" fill-rule="evenodd" d="M3.83 2.01c.663.653 1.022 1.444 1.022 2.056 0 .121.047.237.13.323a.437.437 0 0 0 .627 0 .46.46 0 0 0 .13-.323c0-.934-.518-1.948-1.297-2.715C3.654.577 2.546 0 1.284 0A.44.44 0 0 0 .97.134a.463.463 0 0 0 0 .644.44.44 0 0 0 .314.134c.994 0 1.891.455 2.545 1.098" clip-rule="evenodd"/><path fill="#FC7416" d="M5.295 4.522v1zm-.853-3.17.702-.714zM.841.455h1zm2.287 2.267c.533.524.724 1.073.724 1.343h2c0-.955-.527-1.988-1.321-2.768zm.724 1.343c0 .378.146.745.413 1.02l1.434-1.394c.101.104.153.239.153.374zm.413 1.02c.268.276.638.436 1.03.436v-2c.157 0 .302.065.404.17zm1.03.436c.392 0 .762-.16 1.03-.436L4.893 3.692a.56.56 0 0 1 .403-.17zm1.03-.436c.268-.275.414-.642.414-1.02h-2c0-.135.052-.27.153-.374zm.414-1.02c0-1.278-.687-2.534-1.595-3.428L3.74 2.064c.65.639.998 1.411.998 2.002zM5.143.638C4.207-.282 2.857-1 1.283-1v2c.95 0 1.819.436 2.458 1.064zM1.283-1c-.391 0-.761.16-1.03.436L1.687.831A.56.56 0 0 1 1.284 1zm-1.03.436A1.46 1.46 0 0 0-.159.456h2c0 .135-.052.27-.154.375zM-.159.456c0 .377.145.744.412 1.02L1.687.08c.102.104.154.24.154.375zm.412 1.02c.269.275.639.436 1.03.436v-2c.158 0 .302.064.404.17zm1.03.436c.684 0 1.34.315 1.845.811L4.53 1.298C3.728.508 2.59-.088 1.284-.088z" mask="url(#c)"/><mask id="d" fill="#fff"><path fill-rule="evenodd" d="M1.141.004a.43.43 0 0 1 .327.093.46.46 0 0 1 .168.303c.218 1.792 1.748 2.735 2.984 3.244a.45.45 0 0 1 .243.243.47.47 0 0 1 .004.35.45.45 0 0 1-.237.249.43.43 0 0 1-.339.004C3.019 3.967 1.04 2.847.756.513a.47.47 0 0 1 .09-.336.44.44 0 0 1 .295-.173M8.76 3.147c-.51-.12-1.034-.03-1.582.25-.452.23-.774.337-1.027.389a3.2 3.2 0 0 1-.692.052.44.44 0 0 0-.313.134.463.463 0 0 0 0 .645.44.44 0 0 0 .314.133h.008c.238 0 .514 0 .855-.07.346-.07.743-.208 1.248-.466.41-.21.724-.241.992-.178.277.065.566.247.893.582.761.776.991 1.574 1.07 2.18.018.12.08.226.172.298a.434.434 0 0 0 .617-.085.47.47 0 0 0 .09-.334 4.62 4.62 0 0 0-1.324-2.706c-.39-.399-.82-.706-1.32-.824m.419 9.29a.44.44 0 0 0-.316-.128.43.43 0 0 0-.31.14c-.336.358-.618.478-.857.438-1.44-.245-1.71-.25-1.987-.25a.44.44 0 0 0-.314.133.46.46 0 0 0 0 .645.44.44 0 0 0 .314.133h.012c.198 0 .429 0 1.83.239.675.115 1.235-.273 1.64-.706a.46.46 0 0 0 .124-.325.47.47 0 0 0-.136-.32" clip-rule="evenodd"/></mask><path fill="#000" fill-rule="evenodd" d="M1.141.004a.43.43 0 0 1 .327.093.46.46 0 0 1 .168.303c.218 1.792 1.748 2.735 2.984 3.244a.45.45 0 0 1 .243.243.47.47 0 0 1 .004.35.45.45 0 0 1-.237.249.43.43 0 0 1-.339.004C3.019 3.967 1.04 2.847.756.513a.47.47 0 0 1 .09-.336.44.44 0 0 1 .295-.173M8.76 3.147c-.51-.12-1.034-.03-1.582.25-.452.23-.774.337-1.027.389a3.2 3.2 0 0 1-.692.052.44.44 0 0 0-.313.134.463.463 0 0 0 0 .645.44.44 0 0 0 .314.133h.008c.238 0 .514 0 .855-.07.346-.07.743-.208 1.248-.466.41-.21.724-.241.992-.178.277.065.566.247.893.582.761.776.991 1.574 1.07 2.18.018.12.08.226.172.298a.434.434 0 0 0 .617-.085.47.47 0 0 0 .09-.334 4.62 4.62 0 0 0-1.324-2.706c-.39-.399-.82-.706-1.32-.824m.419 9.29a.44.44 0 0 0-.316-.128.43.43 0 0 0-.31.14c-.336.358-.618.478-.857.438-1.44-.245-1.71-.25-1.987-.25a.44.44 0 0 0-.314.133.46.46 0 0 0 0 .645.44.44 0 0 0 .314.133h.012c.198 0 .429 0 1.83.239.675.115 1.235-.273 1.64-.706a.46.46 0 0 0 .124-.325.47.47 0 0 0-.136-.32" clip-rule="evenodd"/><path fill="#FC7416" d="m1.141.004-.127-.991zM1.636.4l.992-.12zM4.62 3.644 5 2.719zm-.329.846.38-.925zM.756.513l-.992.12zM8.76 3.147l-.23.974h.002zm-1.582.25.454.89zM6.322 4.68l-.2-.98zm1.248-.466-.454-.891zm.992-.178.23-.973H8.79zm.893.582-.714.7zm1.07 2.18-.991.13v.008l.002.007zm.879-.12.993-.115v-.008l-.002-.007zM10.08 3.97l.714-.7zm-.902 8.465-.704.711h.001zm-.627.013.73.683zm-.856.438-.167.986h.002zm-.144.9.167-.986zm1.639-.706-.73-.684zM1.268.996A.57.57 0 0 1 .843.878l1.25-1.562a1.43 1.43 0 0 0-1.08-.303zM.843.878a.54.54 0 0 1-.2-.357L2.628.28a1.46 1.46 0 0 0-.535-.963zM.643.52C.933 2.896 2.95 4.038 4.24 4.569L5 2.719C3.819 2.233 2.776 1.488 2.629.279zM4.24 4.568a.55.55 0 0 1-.3-.296l1.846-.77a1.45 1.45 0 0 0-.785-.783zm-.3-.296a.53.53 0 0 1-.005-.398l1.864.725a1.47 1.47 0 0 0-.013-1.096zm-.005-.398a.55.55 0 0 1 .292-.303l.807 1.83a1.45 1.45 0 0 0 .765-.802zm.292-.303a.57.57 0 0 1 .445-.006l-.762 1.85c.361.149.767.143 1.124-.014zm.444-.006C3.451 3.063 1.961 2.142 1.75.393l-1.985.24c.354 2.92 2.825 4.238 4.147 4.782zM1.75.393a.54.54 0 0 1-.105.387L.049-.426c-.23.304-.33.685-.285 1.06zM1.644.78a.56.56 0 0 1-.375.216L1.013-.987a1.44 1.44 0 0 0-.964.56zm7.345 1.394c-.794-.187-1.561-.028-2.267.333l.91 1.78c.39-.198.67-.22.898-.166zm-2.267.332c-.39.2-.627.27-.772.3l.4 1.96c.36-.074.768-.216 1.281-.478zm-.772.3c-.144.03-.254.032-.492.032v2c.24 0 .53.001.892-.072zm-.492.032c-.391 0-.762.16-1.03.437l1.434 1.394a.56.56 0 0 1-.404.17zm-1.03.437a1.46 1.46 0 0 0-.413 1.02h2c0 .135-.052.27-.153.374zm-.413 1.02c0 .376.146.744.413 1.019l1.434-1.395c.101.105.153.24.153.375zm.413 1.019c.268.276.639.436 1.03.436v-2c.157 0 .302.064.404.17zm1.03.436h.009v-2h-.008zm.009 0c.242 0 .607.002 1.056-.09l-.4-1.96a3 3 0 0 1-.656.05zm1.055-.09c.455-.093.937-.267 1.503-.556l-.91-1.781c-.444.227-.755.329-.993.378zm1.503-.556a.9.9 0 0 1 .253-.094c.035-.006.048-.002.055 0l.457-1.948c-.549-.129-1.105-.03-1.674.26zm.306-.095c.022.005.15.044.41.308l1.43-1.399c-.398-.405-.846-.73-1.38-.855zm.41.309c.571.582.734 1.158.793 1.61l1.983-.259a4.7 4.7 0 0 0-1.347-2.751zm.795 1.625c.054.37.248.71.55.944l1.223-1.583c.116.09.187.217.206.35zm.55.944c.303.234.69.34 1.073.287l-.273-1.982a.57.57 0 0 1 .423.112zm1.073.287a1.44 1.44 0 0 0 .954-.561l-1.598-1.204a.56.56 0 0 1 .371-.217zm.954-.561c.227-.302.327-.68.284-1.05l-1.986.23a.54.54 0 0 1 .104-.384zm.283-1.065a5.62 5.62 0 0 0-1.602-3.277l-1.428 1.4a3.62 3.62 0 0 1 1.046 2.136zm-1.602-3.277c-.458-.468-1.048-.92-1.806-1.097L8.53 4.12c.243.057.512.22.835.55zm-.912 8.455a1.4 1.4 0 0 0-.476-.313l-.748 1.855a.6.6 0 0 1-.184-.12zm-.476-.313a1.4 1.4 0 0 0-.563-.104l.039 2a.6.6 0 0 1-.224-.041zm-.563-.104a1.4 1.4 0 0 0-.56.126l.82 1.824a.6.6 0 0 1-.221.05zm-.56.126a1.4 1.4 0 0 0-.462.33l1.46 1.367a.6.6 0 0 1-.178.127zm-.462.33q-.083.089-.131.124c-.032.025-.046.032-.044.03a.3.3 0 0 1 .067-.018.5.5 0 0 1 .148 0l-.331 1.972c.74.125 1.338-.3 1.751-.74zm.042.136c-1.452-.247-1.79-.264-2.155-.264v2c.188 0 .39-.007 1.82.236zm-2.155-.264c-.392 0-.762.16-1.03.436l1.433 1.394a.56.56 0 0 1-.403.17zm-1.03.436a1.46 1.46 0 0 0-.414 1.02h2c0 .135-.052.27-.153.374zm-.414 1.02c0 .377.146.744.413 1.019l1.434-1.394c.101.104.153.239.153.374zm.413 1.019c.269.276.639.436 1.03.436v-2c.157 0 .302.065.404.17zm1.03.436h.013v-2h-.012zm.013 0c.108 0 .268-.013 1.663.225l.335-1.972c-1.409-.24-1.71-.253-1.998-.253zm1.663.225c1.183.201 2.061-.5 2.537-1.008l-1.46-1.367c-.334.357-.576.431-.742.403zm2.537-1.008a1.5 1.5 0 0 0 .298-.477l-1.869-.713a.5.5 0 0 1 .111-.178zm.298-.477c.067-.176.1-.363.096-.55l-2 .037a.5.5 0 0 1 .035-.2zm.096-.55a1.5 1.5 0 0 0-.117-.547l-1.84.782a.5.5 0 0 1-.043-.199zm-.117-.547a1.5 1.5 0 0 0-.316-.466l-1.406 1.423a.6.6 0 0 1-.118-.175z" mask="url(#d)"/><mask id="e" fill="#fff"><path fill-rule="evenodd" d="M11.812 4.15c-.445.825-.56 1.69-.383 2.275a.47.47 0 0 1-.14.486.44.44 0 0 1-.324.104.43.43 0 0 1-.3-.163.5.5 0 0 1-.082-.156c-.27-.893-.068-2.02.454-2.989.528-.98 1.42-1.87 2.626-2.255a.43.43 0 0 1 .472.144.46.46 0 0 1 .052.504.45.45 0 0 1-.26.223c-.95.304-1.676 1.013-2.115 1.827" clip-rule="evenodd"/></mask><path fill="#000" fill-rule="evenodd" d="M11.812 4.15c-.445.825-.56 1.69-.383 2.275a.47.47 0 0 1-.14.486.44.44 0 0 1-.324.104.43.43 0 0 1-.3-.163.5.5 0 0 1-.082-.156c-.27-.893-.068-2.02.454-2.989.528-.98 1.42-1.87 2.626-2.255a.43.43 0 0 1 .472.144.46.46 0 0 1 .052.504.45.45 0 0 1-.26.223c-.95.304-1.676 1.013-2.115 1.827" clip-rule="evenodd"/><path fill="#FC7416" d="m11.812 4.15-.88-.475zm-.383 2.275-.957.29zm-.847.271-.957.29zm.455-2.989-.88-.474zm2.626-2.255L13.358.5zm.263.87.305.953zm-2.994 1.353c-.53.982-.736 2.127-.46 3.04l1.914-.58c-.077-.256-.054-.843.306-1.511zm-.46 3.04a.5.5 0 0 1-.02-.201l1.991.177a1.5 1.5 0 0 0-.057-.555zm-.02-.201a.5.5 0 0 1 .056-.196l1.78.91c.086-.168.139-.35.155-.537zm.056-.196a.6.6 0 0 1 .131-.167l1.3 1.52c.146-.124.264-.275.35-.443zm.131-.167a.6.6 0 0 1 .194-.107l.61 1.904a1.4 1.4 0 0 0 .497-.277zm.194-.107a.6.6 0 0 1 .226-.025l-.187 1.991c.192.018.386-.003.57-.062zm.226-.025q.116.011.216.066l-.951 1.759c.169.091.355.148.548.166zm.216.066a.6.6 0 0 1 .167.138L9.888 7.481c.12.148.267.272.436.363zm.167.138a.5.5 0 0 1 .098.184l-1.915.578c.055.18.143.349.263.496zm.098.184c-.17-.564-.061-1.412.377-2.225l-1.76-.949c-.607 1.125-.901 2.53-.532 3.752zm.377-2.225c.432-.801 1.14-1.486 2.05-1.777L13.359.5c-1.499.48-2.576 1.572-3.202 2.733zm2.05-1.777a.6.6 0 0 1-.226.024L13.93.438a1.4 1.4 0 0 0-.57.062zm-.226.024a.6.6 0 0 1-.216-.065l.951-1.76a1.4 1.4 0 0 0-.548-.166zm-.216-.065a.6.6 0 0 1-.167-.139L14.912.967a1.45 1.45 0 0 0-.436-.363zm-.167-.139a.5.5 0 0 1-.097-.183l1.914-.58a1.5 1.5 0 0 0-.263-.495zm-.097-.183a.5.5 0 0 1-.021-.201l1.992.177a1.5 1.5 0 0 0-.057-.555zm-.021-.201a.5.5 0 0 1 .056-.196l1.781.91c.086-.168.138-.35.155-.537zm.056-.196a.6.6 0 0 1 .132-.167l1.3 1.52q.22-.19.35-.443zm.132-.167a.6.6 0 0 1 .193-.108l.61 1.905a1.4 1.4 0 0 0 .498-.277zm.194-.108c-1.244.398-2.154 1.311-2.69 2.305l1.76.95c.342-.635.883-1.14 1.539-1.35z" mask="url(#e)"/><mask id="f" fill="#fff"><path fill-rule="evenodd" d="M12.729 4.732c-.518.78-1.218 1.273-1.805 1.373a.44.44 0 0 0-.293.183.46.46 0 0 0-.08.343.46.46 0 0 0 .183.298.44.44 0 0 0 .334.076c.897-.153 1.785-.844 2.393-1.759.615-.926.987-2.145.78-3.426a.46.46 0 0 0-.178-.296.437.437 0 0 0-.69.267.5.5 0 0 0-.006.178c.162 1.01-.128 1.994-.638 2.762" clip-rule="evenodd"/></mask><path fill="#000" fill-rule="evenodd" d="M12.729 4.732c-.518.78-1.218 1.273-1.805 1.373a.44.44 0 0 0-.293.183.46.46 0 0 0-.08.343.46.46 0 0 0 .183.298.44.44 0 0 0 .334.076c.897-.153 1.785-.844 2.393-1.759.615-.926.987-2.145.78-3.426a.46.46 0 0 0-.178-.296.437.437 0 0 0-.69.267.5.5 0 0 0-.006.178c.162 1.01-.128 1.994-.638 2.762" clip-rule="evenodd"/><path fill="#FC7416" d="m10.924 6.105.151.989.009-.001.008-.002zm.144.9-.168-.986-.007.001-.008.002zm2.393-1.759.833.553zm.78-3.426-.987.159zm-.874.149-.988.158zm-1.471 2.21c-.42.632-.91.901-1.14.94l.336 1.972c.943-.161 1.855-.88 2.47-1.806zm-1.124.938c-.193.03-.377.098-.541.2l1.057 1.698a.6.6 0 0 1-.213.079zm-.541.2a1.5 1.5 0 0 0-.416.393l1.632 1.156a.6.6 0 0 1-.159.15zm-.416.393c-.11.156-.189.332-.232.516l1.95.45a.5.5 0 0 1-.086.19zm-.232.516a1.5 1.5 0 0 0-.019.563l1.975-.317a.5.5 0 0 1-.007.204zm-.019.563c.03.187.097.367.196.53l1.707-1.041q.056.091.072.194zm.196.53c.1.163.23.306.387.42l1.174-1.62a.6.6 0 0 1 .146.159zm.387.42c.157.113.335.194.525.238l.443-1.95q.113.025.206.092zm.525.238c.19.043.388.047.58.01l-.367-1.965a.6.6 0 0 1 .23.004zm.564.014c1.254-.214 2.353-1.131 3.058-2.192l-1.666-1.106c-.511.77-1.189 1.234-1.728 1.326zm3.058-2.192c.73-1.098 1.188-2.568.935-4.138l-1.975.318c.16.992-.126 1.96-.626 2.714zm.935-4.137a1.5 1.5 0 0 0-.192-.526l-1.712 1.035a.5.5 0 0 1-.07-.192zm-.192-.526a1.5 1.5 0 0 0-.381-.417l-1.187 1.61a.6.6 0 0 1-.144-.158zM14.656.72a1.4 1.4 0 0 0-.518-.241l-.466 1.945a.6.6 0 0 1-.203-.094zm-.518-.241a1.4 1.4 0 0 0-.573-.02L13.9 2.43a.6.6 0 0 1-.228-.007zm-.573-.02c-.191.033-.372.104-.534.207L14.11 2.35a.6.6 0 0 1-.21.08zm-.534.207a1.5 1.5 0 0 0-.408.392l1.641 1.144a.6.6 0 0 1-.155.149zm-.408.392c-.108.156-.184.33-.226.513l1.95.442a.5.5 0 0 1-.083.189zm-.226.513a1.5 1.5 0 0 0-.018.557l1.975-.317a.5.5 0 0 1-.006.202zm-.017.558c.116.72-.089 1.455-.484 2.05l1.665 1.107c.626-.941 1.002-2.177.793-3.475z" mask="url(#f)"/><mask id="g" fill="#fff"><path fill-rule="evenodd" d="M11.427 7.294c-.294 0-.576.12-.784.333a1.16 1.16 0 0 0-.324.806c0 .303.116.592.324.806s.49.334.784.334c.293 0 .575-.12.783-.334s.325-.504.325-.806-.117-.592-.325-.806a1.1 1.1 0 0 0-.783-.333m-1.995 1.14c0-.27.052-.537.152-.786s.247-.475.432-.665.405-.342.647-.445a1.95 1.95 0 0 1 2.174.445c.185.19.332.416.432.665a2.1 2.1 0 0 1-.432 2.236c-.374.384-.881.6-1.41.6a1.97 1.97 0 0 1-1.41-.6 2.08 2.08 0 0 1-.585-1.45" clip-rule="evenodd"/></mask><path fill="#000" fill-rule="evenodd" d="M11.427 7.294c-.294 0-.576.12-.784.333a1.16 1.16 0 0 0-.324.806c0 .303.116.592.324.806s.49.334.784.334c.293 0 .575-.12.783-.334s.325-.504.325-.806-.117-.592-.325-.806a1.1 1.1 0 0 0-.783-.333m-1.995 1.14c0-.27.052-.537.152-.786s.247-.475.432-.665.405-.342.647-.445a1.95 1.95 0 0 1 2.174.445c.185.19.332.416.432.665a2.1 2.1 0 0 1-.432 2.236c-.374.384-.881.6-1.41.6a1.97 1.97 0 0 1-1.41-.6 2.08 2.08 0 0 1-.585-1.45" clip-rule="evenodd"/><path fill="#FC7416" d="M11.427 7.294v-1zm0 2.279v1zm-1.995-1.14h1zm3.99 0h1zm-1.995-2.14c-.569 0-1.108.233-1.5.637l1.433 1.394a.1.1 0 0 1 .067-.03zm-1.5.637a2.16 2.16 0 0 0-.608 1.503h2c0-.046.018-.084.041-.109zm-.608 1.503c0 .559.215 1.1.607 1.503l1.434-1.394a.16.16 0 0 1-.041-.109zm.607 1.503c.393.404.932.637 1.5.637v-2a.1.1 0 0 1-.066-.031zm1.5.637c.569 0 1.108-.233 1.501-.637l-1.434-1.394a.1.1 0 0 1-.066.03zm1.501-.637c.392-.403.608-.944.608-1.503h-2a.16.16 0 0 1-.042.109zm.608-1.503c0-.558-.216-1.1-.608-1.503l-1.434 1.394a.16.16 0 0 1 .042.11zm-.608-1.503a2.1 2.1 0 0 0-1.5-.636v2c.02 0 .044.007.066.03zm-2.495 1.503a1.1 1.1 0 0 1 .08-.411l-1.856-.747a3.1 3.1 0 0 0-.224 1.158zm.08-.411q.079-.197.221-.342L9.3 6.286c-.276.284-.494.62-.643.989zm.221-.342a1 1 0 0 1 .322-.222l-.784-1.84a3 3 0 0 0-.972.668zm.322-.222a.95.95 0 0 1 .372-.076v-2c-.398 0-.79.08-1.156.236zm.372-.076q.19 0 .371.076l.784-1.84a2.95 2.95 0 0 0-1.155-.236zm.371.076q.18.076.322.222l1.434-1.394a3 3 0 0 0-.972-.668zm.322.222q.143.145.222.342l1.855-.747a3.1 3.1 0 0 0-.643-.99zm.222.342c.052.13.08.27.08.411h2c0-.397-.077-.79-.225-1.158zm.08.411c0 .288-.112.559-.302.754l1.434 1.394a3.08 3.08 0 0 0 .867-2.148zm-.302.754a.97.97 0 0 1-.693.298v2c.803 0 1.568-.329 2.127-.904zm-.693.298a.97.97 0 0 1-.694-.298L9.3 10.58c.56.575 1.324.904 2.128.904zm-.694-.298a1.08 1.08 0 0 1-.3-.754h-2c0 .8.308 1.574.866 2.148z" mask="url(#g)"/><path fill="#000" stroke="#FC7416" d="M14.897 7.538Zm0 0 .003-.002zm0 0 .004.003z"/><mask id="h" fill="#fff"><path fill-rule="evenodd" d="M13.41 7.374a1.94 1.94 0 0 1 1.368.102c.43.2.779.55.982.988s.249.936.128 1.405c-.12.47-.398.88-.785 1.159a.44.44 0 0 1-.334.08.44.44 0 0 1-.29-.188.463.463 0 0 1 .117-.64 1.16 1.16 0 0 0 .44-1.21 1.2 1.2 0 0 0-.19-.41 1.087 1.087 0 0 0-1.583-.199.44.44 0 0 1-.325.1.44.44 0 0 1-.299-.166.46.46 0 0 1-.097-.334.47.47 0 0 1 .162-.307c.207-.174.447-.303.705-.38M9.653 10.03c-.294 0-.576.12-.784.334a1.16 1.16 0 0 0-.324.806c0 .302.116.592.324.806s.49.334.784.334.575-.12.783-.334.325-.504.325-.806-.117-.592-.325-.806a1.1 1.1 0 0 0-.783-.334m-1.995 1.14c0-.544.21-1.066.584-1.45.374-.385.882-.601 1.41-.601.53 0 1.037.216 1.411.6.374.385.584.907.584 1.451s-.21 1.066-.584 1.45c-.374.385-.881.601-1.41.601a1.97 1.97 0 0 1-1.41-.6 2.08 2.08 0 0 1-.585-1.45" clip-rule="evenodd"/></mask><path fill="#000" fill-rule="evenodd" d="M13.41 7.374a1.94 1.94 0 0 1 1.368.102c.43.2.779.55.982.988s.249.936.128 1.405c-.12.47-.398.88-.785 1.159a.44.44 0 0 1-.334.08.44.44 0 0 1-.29-.188.463.463 0 0 1 .117-.64 1.16 1.16 0 0 0 .44-1.21 1.2 1.2 0 0 0-.19-.41 1.087 1.087 0 0 0-1.583-.199.44.44 0 0 1-.325.1.44.44 0 0 1-.299-.166.46.46 0 0 1-.097-.334.47.47 0 0 1 .162-.307c.207-.174.447-.303.705-.38M9.653 10.03c-.294 0-.576.12-.784.334a1.16 1.16 0 0 0-.324.806c0 .302.116.592.324.806s.49.334.784.334.575-.12.783-.334.325-.504.325-.806-.117-.592-.325-.806a1.1 1.1 0 0 0-.783-.334m-1.995 1.14c0-.544.21-1.066.584-1.45.374-.385.882-.601 1.41-.601.53 0 1.037.216 1.411.6.374.385.584.907.584 1.451s-.21 1.066-.584 1.45c-.374.385-.881.601-1.41.601a1.97 1.97 0 0 1-1.41-.6 2.08 2.08 0 0 1-.585-1.45" clip-rule="evenodd"/><path fill="#FC7416" d="m13.41 7.374-.284-.959h-.001zm2.35 1.09.907-.421zm-.657 2.564-.584-.812-.008.006-.007.005zm-.507-.748.566.825.01-.007.008-.006zm-1.333-1.819-.64-.768-.002.001zm-.56-.707-.64-.767h-.001zm-3.05 2.275v-1zm0 2.28v-1zm-1.994-1.14h1zm6.033-2.835a.94.94 0 0 1 .666.05l.84-1.815a2.94 2.94 0 0 0-2.072-.154zm.666.05c.211.097.389.272.495.5l1.814-.841a3.02 3.02 0 0 0-1.468-1.474zm.495.5c.106.229.13.49.067.737l1.937.496a3.1 3.1 0 0 0-.19-2.074zm.067.737a1.05 1.05 0 0 1-.401.595l1.168 1.623c.58-.418.993-1.03 1.17-1.722zm-.416.606a.6.6 0 0 1 .204-.096l.472 1.944q.287-.07.523-.247zm.204-.096a.6.6 0 0 1 .23-.008l-.339 1.971c.193.034.39.027.58-.02zm.23-.008a.6.6 0 0 1 .212.083l-1.09 1.677c.163.106.346.178.539.211zm.212.083a.6.6 0 0 1 .156.153l-1.655 1.122q.163.241.409.402zm.156.153q.06.09.082.192l-1.958.408c.039.186.113.364.221.522zm.082.192a.5.5 0 0 1 .002.204l-1.967-.36c-.034.186-.032.378.007.564zm.002.204a.5.5 0 0 1-.076.194L13.63 9.867c-.103.161-.174.34-.208.527zm-.076.194a.6.6 0 0 1-.152.155L14.03 9.457c-.16.11-.295.25-.399.411zm-.134.143c.232-.167.427-.379.575-.622l-1.709-1.039a.1.1 0 0 1-.034.037zm.575-.622a2.2 2.2 0 0 0 .289-.793l-1.977-.305a.2.2 0 0 1-.02.059zm.289-.793a2.2 2.2 0 0 0-.036-.842l-1.944.471a.2.2 0 0 1 .003.066zm-.036-.842a2.2 2.2 0 0 0-.356-.766L14.04 9.251q.017.023.025.055zm-.356-.766a2.1 2.1 0 0 0-.627-.57l-1.02 1.72a.1.1 0 0 1 .034.032zm-.627-.57a2.1 2.1 0 0 0-.805-.276l-.25 1.984q.017.002.034.012zm-.805-.276a2.1 2.1 0 0 0-.849.069l.567 1.918a.1.1 0 0 1 .033-.003zm-.849.069c-.275.081-.53.218-.749.401l1.282 1.536a.1.1 0 0 1 .034-.02zm-.75.402a.6.6 0 0 1 .195-.106l.587 1.912a1.4 1.4 0 0 0 .501-.272zm.195-.106a.6.6 0 0 1 .227-.021l-.21 1.988c.192.02.386.002.57-.055zm.227-.021q.117.012.215.068l-.971 1.748c.168.093.353.152.545.172zm.215.068a.6.6 0 0 1 .166.14l-1.57 1.24q.18.226.433.368zm.166.14a.5.5 0 0 1 .095.184l-1.921.558c.052.18.14.35.257.498zm.095.184a.5.5 0 0 1 .018.201l-1.99-.199q-.028.282.051.556zm.018.201a.5.5 0 0 1-.059.196l-1.77-.93a1.5 1.5 0 0 0-.16.535zm-.059.196a.6.6 0 0 1-.133.165l-1.283-1.534a1.5 1.5 0 0 0-.354.439zm-.133.165a1 1 0 0 1 .348-.188l-.568-1.917c-.39.115-.751.31-1.063.57zm-3.691.508c-.569 0-1.108.233-1.5.637l1.433 1.394a.1.1 0 0 1 .067-.03zm-1.5.637a2.16 2.16 0 0 0-.608 1.503h2c0-.046.018-.085.041-.109zm-.608 1.503c0 .559.215 1.1.607 1.503l1.434-1.394a.16.16 0 0 1-.041-.109zm.607 1.503c.393.404.932.637 1.5.637v-2a.1.1 0 0 1-.066-.031zm1.5.637c.569 0 1.108-.233 1.501-.637L9.72 11.278a.1.1 0 0 1-.066.03zm1.501-.637c.392-.403.608-.944.608-1.503h-2a.16.16 0 0 1-.042.109zm.608-1.503c0-.559-.216-1.1-.608-1.503L9.72 11.06a.16.16 0 0 1 .042.11zm-.608-1.503a2.1 2.1 0 0 0-1.5-.637v2q.031-.002.066.031zM8.66 11.17c0-.288.112-.558.301-.753L7.526 9.02a3.08 3.08 0 0 0-.867 2.148zm.301-.753a.97.97 0 0 1 .694-.298v-2c-.804 0-1.568.328-2.128.903zm.694-.298c.254 0 .504.103.693.298l1.434-1.395a2.97 2.97 0 0 0-2.127-.903zm.693.298c.19.195.301.465.301.753h2c0-.8-.309-1.573-.867-2.148zm.301.753c0 .288-.111.558-.301.754l1.434 1.394a3.08 3.08 0 0 0 .867-2.148zm-.301.754a.97.97 0 0 1-.693.297v2c.803 0 1.568-.328 2.127-.903zm-.693.297a.97.97 0 0 1-.694-.297l-1.434 1.394c.56.575 1.324.903 2.128.903zm-.694-.297a1.08 1.08 0 0 1-.3-.754h-2c0 .8.308 1.573.866 2.148z" mask="url(#h)"/><mask id="i" fill="#fff"><path fill-rule="evenodd" d="M13.2 10.029c-.294 0-.576.12-.784.334a1.16 1.16 0 0 0-.325.806c0 .302.117.592.325.806.208.213.49.333.783.333s.576-.12.784-.333.324-.504.324-.806-.116-.593-.324-.806a1.1 1.1 0 0 0-.784-.334m-1.995 1.14c0-.545.21-1.066.584-1.451s.881-.6 1.41-.6c.53 0 1.037.215 1.41.6.375.385.585.906.585 1.45 0 .545-.21 1.066-.584 1.451s-.882.601-1.41.601a1.97 1.97 0 0 1-1.411-.6 2.08 2.08 0 0 1-.584-1.451" clip-rule="evenodd"/></mask><path fill="#000" fill-rule="evenodd" d="M13.2 10.029c-.294 0-.576.12-.784.334a1.16 1.16 0 0 0-.325.806c0 .302.117.592.325.806.208.213.49.333.783.333s.576-.12.784-.333.324-.504.324-.806-.116-.593-.324-.806a1.1 1.1 0 0 0-.784-.334m-1.995 1.14c0-.545.21-1.066.584-1.451s.881-.6 1.41-.6c.53 0 1.037.215 1.41.6.375.385.585.906.585 1.45 0 .545-.21 1.066-.584 1.451s-.882.601-1.41.601a1.97 1.97 0 0 1-1.411-.6 2.08 2.08 0 0 1-.584-1.451" clip-rule="evenodd"/><path fill="#FC7416" d="M13.2 10.029v-1zm0 2.28v-1zm0-3.28c-.569 0-1.108.232-1.501.637l1.434 1.394a.1.1 0 0 1 .066-.031zm-1.501.637a2.16 2.16 0 0 0-.608 1.503h2c0-.046.018-.085.042-.11zm-.608 1.503c0 .558.216 1.1.608 1.503l1.434-1.395a.16.16 0 0 1-.042-.108zm.608 1.503c.393.404.932.636 1.5.636v-2a.1.1 0 0 1-.066-.03zm1.5.636c.569 0 1.108-.232 1.5-.636l-1.433-1.395a.1.1 0 0 1-.067.031zm1.5-.636c.393-.404.608-.945.608-1.503h-2a.16.16 0 0 1-.041.108zm.608-1.503c0-.559-.215-1.1-.607-1.503l-1.434 1.394a.16.16 0 0 1 .041.109zM14.7 9.666a2.1 2.1 0 0 0-1.5-.637v2q.03-.002.066.03zm-2.495 1.503c0-.288.111-.559.301-.754l-1.434-1.394a3.08 3.08 0 0 0-.867 2.148zm.301-.754a.97.97 0 0 1 .693-.298v-2c-.803 0-1.568.329-2.127.904zm.693-.298c.255 0 .505.104.694.298l1.434-1.394a2.97 2.97 0 0 0-2.128-.904zm.694.298c.19.195.3.466.3.754h2c0-.8-.308-1.574-.866-2.148zm.3.754c0 .287-.11.558-.3.753l1.434 1.394a3.08 3.08 0 0 0 .867-2.147zm-.3.753a.97.97 0 0 1-.694.298v2c.804 0 1.568-.328 2.128-.904zm-.694.298a.97.97 0 0 1-.693-.298l-1.434 1.394c.56.575 1.324.904 2.127.904zm-.693-.298a1.08 1.08 0 0 1-.301-.753h-2c0 .8.309 1.573.867 2.147z" mask="url(#i)"/><mask id="j" fill="#fff"><path fill-rule="evenodd" d="M11.427 12.764c-.294 0-.576.12-.784.334a1.16 1.16 0 0 0-.324.806c0 .302.116.592.324.806.208.213.49.334.784.334.293 0 .575-.12.783-.334s.325-.504.325-.806-.117-.592-.325-.806a1.1 1.1 0 0 0-.783-.334m-1.995 1.14c0-.27.052-.536.152-.785s.247-.475.432-.666c.185-.19.405-.341.647-.444a1.95 1.95 0 0 1 2.174.444 2.1 2.1 0 0 1 0 2.901c-.374.385-.881.601-1.41.601a1.97 1.97 0 0 1-1.41-.6 2.08 2.08 0 0 1-.585-1.451" clip-rule="evenodd"/></mask><path fill="#000" fill-rule="evenodd" d="M11.427 12.764c-.294 0-.576.12-.784.334a1.16 1.16 0 0 0-.324.806c0 .302.116.592.324.806.208.213.49.334.784.334.293 0 .575-.12.783-.334s.325-.504.325-.806-.117-.592-.325-.806a1.1 1.1 0 0 0-.783-.334m-1.995 1.14c0-.27.052-.536.152-.785s.247-.475.432-.666c.185-.19.405-.341.647-.444a1.95 1.95 0 0 1 2.174.444 2.1 2.1 0 0 1 0 2.901c-.374.385-.881.601-1.41.601a1.97 1.97 0 0 1-1.41-.6 2.08 2.08 0 0 1-.585-1.451" clip-rule="evenodd"/><path fill="#FC7416" d="M9.432 13.904h1zm3.99 0h1zm-1.995 2.051v-1zm0-4.19c-.569 0-1.108.232-1.5.636l1.433 1.394a.1.1 0 0 1 .067-.03zm-1.5.636a2.16 2.16 0 0 0-.608 1.503h2c0-.046.018-.085.041-.109zm-.608 1.503c0 .559.215 1.1.607 1.503l1.434-1.394a.16.16 0 0 1-.041-.11zm.607 1.503c.393.404.932.637 1.5.637v-2a.1.1 0 0 1-.066-.031zm1.5.637c.569 0 1.108-.233 1.501-.637l-1.434-1.394a.1.1 0 0 1-.066.03zm1.501-.637c.392-.403.608-.944.608-1.503h-2a.16.16 0 0 1-.042.109zm.608-1.503c0-.559-.216-1.1-.608-1.503l-1.434 1.394a.16.16 0 0 1 .042.109zm-.608-1.503a2.1 2.1 0 0 0-1.5-.637v2q.031-.002.066.031zm-2.495 1.503a1.1 1.1 0 0 1 .08-.412l-1.856-.747a3.1 3.1 0 0 0-.224 1.159zm.08-.412q.079-.196.221-.342L9.3 11.756c-.276.285-.494.621-.643.99zm.221-.342a1 1 0 0 1 .322-.221l-.784-1.84a3 3 0 0 0-.972.667zm.322-.221a.95.95 0 0 1 .372-.077v-2c-.398 0-.79.081-1.156.237zm.372-.077q.19 0 .371.077l.784-1.84a2.95 2.95 0 0 0-1.155-.237zm.371.077q.18.076.322.221l1.434-1.394a3 3 0 0 0-.972-.667zm.322.221q.143.147.222.342l1.855-.747a3.1 3.1 0 0 0-.643-.989zm.222.342q.079.197.08.412h2c0-.397-.077-.79-.225-1.159zm.08.412c0 .288-.112.558-.302.753l1.434 1.395a3.08 3.08 0 0 0 .867-2.148zm-.302.753a.97.97 0 0 1-.693.298v2c.803 0 1.568-.328 2.127-.903zm-.693.298a.97.97 0 0 1-.694-.298L9.3 16.052c.56.575 1.324.903 2.128.903zm-.694-.298a1.08 1.08 0 0 1-.3-.753h-2c0 .8.308 1.573.866 2.148z" mask="url(#j)"/><path fill="#000" stroke="#FC7416" d="m12.925 15.075.003.004zm0 0-.01-.009zm1.602-2.651Z"/></svg>