<svg width="16" height="16" viewBox="0 0 16 16" fill="none" xmlns="http://www.w3.org/2000/svg">
<path d="M13.2889 8.69399C13.163 9.65396 12.7781 10.5616 12.1756 11.3194C11.5731 12.0773 10.7757 12.6569 9.86885 12.996C8.96199 13.3351 7.97992 13.421 7.02797 13.2444C6.07603 13.0678 5.19011 12.6354 4.46524 11.9935C3.74036 11.3517 3.20388 10.5247 2.91332 9.60109C2.62276 8.67753 2.58908 7.69229 2.81591 6.75105C3.04273 5.8098 3.52149 4.94805 4.20085 4.25823C4.88021 3.5684 5.73454 3.07651 6.6722 2.83532C9.27154 2.16866 11.9622 3.50666 12.9555 5.99999" stroke="white" stroke-width="1.33333" stroke-linecap="round" stroke-linejoin="round"/>
<path d="M13.3333 2.66663V5.99996H10" stroke="white" stroke-width="1.33333" stroke-linecap="round" stroke-linejoin="round"/>
</svg>
