<svg width="221" height="37" fill="none"><g fill="#fff" clip-path="url(#a)"><path d="M65.614.52c1.364-.004 2.73-.054 4.09.022 1.173.123 2.224 1.127 2.097 2.344.015 11.035.007 22.07.004 33.108-1.266-.003-2.533.018-3.797-.005-.73-.073-1.51-.342-1.928-.978a3.35 3.35 0 0 1-.48-1.93c.014-10.853-.015-21.708.014-32.562M146.406.528c1.178-.04 2.359-.017 3.539-.023.85-.007 1.806.27 2.301 1.005.348.458.412 1.05.454 1.604.029 10.939-.029 21.879.029 32.815-.925.143-1.868.032-2.799.069-.92.025-1.973.023-2.697-.621-.733-.605-.727-1.631-.831-2.489 0-10.785-.01-21.572.004-32.36M123.729 2.931c-.019-1.039.709-2.22 1.847-2.26 1.451-.066 2.904-.019 4.357-.028-.002 11.784.004 23.568-.004 35.353-1.594-.12-3.3.317-4.803-.363-1.02-.556-1.045-1.794-1.238-2.787-1.816 2.243-4.668 3.694-7.595 3.635-3.226.084-6.422-1.318-8.634-3.623-3.58-3.744-4.413-9.62-2.305-14.283 1.494-3.459 4.67-6.285 8.464-6.96 2.759-.624 5.736.079 8.041 1.666.649.45 1.194 1.031 1.84 1.49.059-3.946-.004-7.894.03-11.84m-8.321 14.674c-2.946.75-5.062 3.661-4.971 6.647.147 1.818.991 3.602 2.456 4.742 1.831 1.545 4.552 1.92 6.754.974 2.533-1.037 4.278-3.736 4.059-6.452-.214-2.17-1.526-4.226-3.468-5.28-1.437-.868-3.216-.933-4.83-.631M197.337.948c1.524.05 3.074-.141 4.581.164 1.035.275 1.615 1.349 1.597 2.357.025 5.62-.007 11.24.018 16.86.809-.346 1.279-1.147 1.885-1.747 1.567-1.63 3.059-3.332 4.68-4.912 1.167-1.195 2.882-1.81 4.553-1.732 1.807.02 3.617-.044 5.424.036a2477 2477 0 0 1-7.8 8.25c-.889 1.069-1.988 1.955-2.819 3.072 3.868 4.206 7.657 8.48 11.544 12.667-1.667.069-3.339.011-5.006.034-1.659.042-3.373-.489-4.571-1.656-1.407-1.348-2.639-2.859-4.011-4.242-.69-.712-1.271-1.537-2.044-2.166-.373-.051-.57.297-.794.516-.336.375-.701.722-1.012 1.116-.147 1.531.106 3.09-.139 4.614-.159 1.085-1.239 1.76-2.284 1.807-1.271.023-2.545.004-3.814.004.002-11.682-.019-23.36.012-35.042M137.211 1.282c.928-.075 1.961-.212 2.786.313 1.275.7 2.096 2.208 1.809 3.646-.188 1.284-1.183 2.374-2.425 2.766-2.108.787-4.73-.934-4.645-3.2-.172-1.573 1.009-3.036 2.475-3.525M188.023 1.286c.926-.08 1.958-.216 2.786.304.947.523 1.67 1.473 1.832 2.542.265 1.488-.603 3.088-2.002 3.696a3.5 3.5 0 0 1-3.137-.02c-1.215-.55-2.05-1.877-1.948-3.2-.069-1.498 1.075-2.85 2.469-3.322M.966 2.625c1.677-.074 3.358-.02 5.039-.034.92-.046 1.82.223 2.656.578 1.25.6 2.108 1.729 2.937 2.789 1.967 2.517 3.964 5.012 5.917 7.538.27.06.38-.238.538-.39 2.163-2.767 4.347-5.52 6.518-8.28 1.12-1.44 2.956-2.312 4.795-2.235 1.616.017 3.235-.039 4.85.032-4.193 5.3-8.325 10.644-12.52 15.942 4.492 5.852 9.183 11.56 13.679 17.41-1.617.057-3.236.01-4.855.028-1.81.013-3.636-.78-4.755-2.204-2.579-3.2-5.133-6.417-7.697-9.626a1.5 1.5 0 0 0-.556-.447c-2.545 3.36-5.207 6.633-7.808 9.95-1.1 1.511-2.988 2.352-4.855 2.329-1.617-.02-3.234.027-4.849-.029 4.48-5.852 9.135-11.578 13.648-17.407C9.38 13.29 5.208 7.927.966 2.625M166.252 12.893c1.956-1.257 4.423-1.84 6.718-1.307 2.413.41 4.54 1.931 5.9 3.916 1.575 2.284 2.328 5.078 2.296 7.828q.002 6.332 0 12.661c-1.144.012-2.286.008-3.428.01-.817 0-1.721-.233-2.216-.926-.465-.556-.44-1.316-.502-1.994-.019-3.316.011-6.634-.016-9.95.029-1.96-.921-4.085-2.786-4.954-2.612-1.254-6.066-.076-7.418 2.445-1.026 1.744-.82 3.831-.835 5.766-.004 2.424.008 4.848-.004 7.271.031.91-.539 1.883-1.457 2.14-.747.282-1.555.188-2.335.2-.802-.01-1.604.036-2.4-.046.017-7.997.004-15.992.006-23.989 1.188-.036 2.378-.023 3.568-.017.868-.032 1.758.426 2.16 1.202.331.594.232 1.296.284 1.948.781-.776 1.523-1.612 2.465-2.204M47.792 11.46c2.905-.306 5.92.43 8.344 2.049 4.177 2.704 6.422 8.03 5.373 12.86-.618 3.37-2.753 6.42-5.68 8.24-4.04 2.579-9.583 2.499-13.588-.11-4.216-2.615-6.59-7.864-5.632-12.705.636-3.77 3.17-7.143 6.58-8.921 1.42-.772 3.005-1.19 4.603-1.414m-.194 6.344c-2.158.539-4.026 2.204-4.683 4.318-.828 2.252.01 4.91 1.8 6.477.973.928 2.273 1.444 3.589 1.673 1.982.24 4.06-.525 5.427-1.96 1.464-1.445 2.179-3.653 1.686-5.653-.467-1.942-1.883-3.63-3.72-4.454-1.26-.624-2.74-.663-4.099-.401M86.824 11.492c4.606-.617 9.434 1.607 11.976 5.45a12.7 12.7 0 0 1 2.151 7.74c-.207 2.92-1.395 5.8-3.464 7.92-2.375 2.531-5.88 4.025-9.38 3.88-5.532.046-10.729-4.019-12.064-9.311-.91-3.21-.37-6.765 1.364-9.617 1.984-3.302 5.549-5.619 9.417-6.062m-.008 6.307c-2.656.628-4.78 3.014-5 5.713-.14 1.804.59 3.66 1.917 4.91 1.371 1.377 3.413 2.08 5.353 1.849 1.355-.235 2.678-.799 3.66-1.769 1.647-1.518 2.476-3.974 1.787-6.133-.52-1.87-1.967-3.449-3.756-4.219-1.227-.573-2.65-.596-3.96-.351M185.971 11.963c1.377-.021 2.755-.039 4.132.003 1.192.088 2.185 1.19 2.062 2.384.019 7.216.007 14.431.006 21.649-1.206 0-2.41.008-3.611.002-.839-.027-1.764-.336-2.195-1.098-.47-.78-.394-1.721-.394-2.59q.005-10.176 0-20.35M135.155 11.96c1.379-.017 2.761-.04 4.14.008 1.19.1 2.156 1.191 2.052 2.381.021 7.216.008 14.432.008 21.647-1.268 0-2.533.02-3.799-.003-.689-.077-1.441-.296-1.872-.873-.467-.57-.535-1.339-.531-2.042q.004-10.559.002-21.118"/></g><defs><clipPath id="a"><path fill="#fff" d="M0 .5h221v36H0z"/></clipPath></defs></svg>