<svg width="95" height="114" fill="none"><path fill="#fff" d="M0 34.587C0 24.4 0 19.307 1.924 15.295A19.57 19.57 0 0 1 9.718 6.85c3.844-2.239 8.922-2.647 19.077-3.464L60.753.814c11.742-.945 17.613-1.417 22.14.578a19.57 19.57 0 0 1 9.325 8.604c2.352 4.352 2.352 10.241 2.352 22.02v49.602c0 11.42 0 17.13-2.257 21.412a19.56 19.56 0 0 1-8.992 8.587c-4.38 2.058-10.085 1.796-21.495 1.271l-31.958-1.469c-10.5-.483-15.75-.724-19.74-2.922a19.56 19.56 0 0 1-8.116-8.496C0 95.915 0 90.659 0 80.149z" opacity=".4"/></svg>