<svg width="82" height="121" fill="none"><path fill="#fff" d="M.039 34.217c0-9.987 0-14.981 1.869-18.944A19.57 19.57 0 0 1 9.5 6.863c3.752-2.263 8.72-2.771 18.655-3.788l18.913-1.936C59.017-.084 64.992-.696 69.61 1.257a19.57 19.57 0 0 1 9.537 8.61c2.413 4.397 2.413 10.402 2.413 22.414v55.655c0 12.012 0 18.017-2.413 22.414a19.56 19.56 0 0 1-9.537 8.61c-4.619 1.953-10.594 1.341-22.542.118l-18.913-1.936c-9.936-1.017-14.903-1.525-18.655-3.788a19.57 19.57 0 0 1-7.593-8.41c-1.87-3.963-1.87-8.956-1.87-18.943z"/><path fill="#FF831B" fill-rule="evenodd" d="M81.6 38.912.077 41.822 0 39.649l81.522-2.91zM45.149 58.632a2.717 2.717 0 0 1 2.68-2.753l17.781-.236a2.717 2.717 0 1 1 .072 5.434l-17.78.236a2.717 2.717 0 0 1-2.753-2.681" clip-rule="evenodd"/></svg>