<svg width="16" height="16" viewBox="0 0 16 16" fill="none" xmlns="http://www.w3.org/2000/svg">
<g clip-path="url(#clip0_2886_3314)">
<path d="M3.84155 8.71888C3.53237 8.71888 3.30049 8.48697 3.30049 8.17776C3.30049 7.87633 3.53237 7.64442 3.84155 7.64442H7.34299V2.96812C7.34299 2.66667 7.5749 2.43479 7.87633 2.43479C8.17776 2.43479 8.41738 2.66667 8.41738 2.96812V8.17776C8.41738 8.48697 8.17776 8.71888 7.87633 8.71888H3.84155ZM7.88405 15.7681C12.2358 15.7681 15.7681 12.2281 15.7681 7.88405C15.7681 3.53237 12.2358 0 7.88405 0C3.5401 0 0 3.53237 0 7.88405C0 12.2281 3.5401 15.7681 7.88405 15.7681Z" fill="white"/>
</g>
<defs>
<clipPath id="clip0_2886_3314">
<rect width="16" height="16" fill="white"/>
</clipPath>
</defs>
</svg>
