<svg width="16" height="16" viewBox="0 0 16 16" fill="none" xmlns="http://www.w3.org/2000/svg">
<path d="M10.2691 10.8047V3.62155C10.2691 2.62108 9.76545 2.09274 8.79612 2.09274H1.58822C0.618864 2.09274 0.115234 2.62108 0.115234 3.62155V10.9958C0.115234 11.9963 0.618864 12.519 1.58822 12.519H1.95647C1.94564 12.4459 1.94022 12.3672 1.94022 12.2885C1.94022 11.0351 2.92582 10.0122 4.13345 10.0122C5.34108 10.0122 6.32127 11.0351 6.32127 12.2885C6.32127 12.3672 6.31587 12.4459 6.30501 12.519H9.75463C9.74377 12.4403 9.73837 12.3616 9.73837 12.2829C9.73837 11.7096 9.92252 11.1869 10.2691 10.8047ZM11.011 5.19532V10.2482C11.2709 10.0965 11.5796 10.0066 11.9045 10.0066C13.1122 10.0066 14.1194 11.0295 14.1194 12.2829C14.1194 12.3616 14.114 12.4403 14.1032 12.519H14.4335C15.3866 12.519 15.8848 11.9906 15.8848 10.9958V9.01172C15.8848 8.46092 15.7982 8.20235 15.5004 7.85386L13.6591 5.69556C13.3396 5.3246 12.9822 5.19532 12.4515 5.19532H11.011ZM12.4136 8.78126C12.1103 8.78126 11.9208 8.59018 11.9208 8.26979V6.23514H12.3973C12.6464 6.23514 12.8089 6.2801 13.0201 6.52179L14.6718 8.44404C14.7584 8.54519 14.818 8.652 14.8397 8.78126H12.4136ZM4.13345 13.9073C4.99991 13.9073 5.69308 13.1822 5.69308 12.2885C5.69308 11.3948 4.9945 10.6698 4.13345 10.6698C3.2724 10.6698 2.57382 11.3948 2.57382 12.2885C2.57382 13.1766 3.2724 13.9073 4.13345 13.9073ZM11.9262 13.9073C12.7927 13.9073 13.4858 13.1822 13.4858 12.2829C13.4858 11.3892 12.7872 10.6642 11.9262 10.6642C11.0651 10.6642 10.3666 11.3892 10.3666 12.2829C10.3666 13.1766 11.0651 13.9073 11.9262 13.9073Z" fill="white"/>
</svg>
