<svg width="22" height="22" viewBox="0 0 22 22" fill="none" xmlns="http://www.w3.org/2000/svg">
<path d="M6.41667 19.0208C7.68232 19.0208 8.70833 17.9948 8.70833 16.7292C8.70833 15.4635 7.68232 14.4375 6.41667 14.4375C5.15102 14.4375 4.125 15.4635 4.125 16.7292C4.125 17.9948 5.15102 19.0208 6.41667 19.0208Z" fill="white"/>
<path d="M15.5837 19.0208C16.8493 19.0208 17.8753 17.9948 17.8753 16.7292C17.8753 15.4635 16.8493 14.4375 15.5837 14.4375C14.318 14.4375 13.292 15.4635 13.292 16.7292C13.292 17.9948 14.318 19.0208 15.5837 19.0208Z" fill="white"/>
<path fill-rule="evenodd" clip-rule="evenodd" d="M2.04134 2.97949C1.80373 2.97949 1.57586 3.07307 1.40785 3.23963C1.23984 3.40619 1.14547 3.63209 1.14551 3.86763L1.14563 4.72599H7.79134V8.85099H5.95801V11.601H1.14659L1.14724 16.2999C1.14728 16.5368 1.24281 16.764 1.41259 16.9306C1.58237 17.0974 1.81233 17.1899 2.05131 17.1878H3.00913C2.98915 17.0379 2.97884 16.8849 2.97884 16.7295C2.97884 14.831 4.51786 13.292 6.41634 13.292C8.31482 13.292 9.85384 14.831 9.85384 16.7295C9.85384 16.8849 9.84357 17.0379 9.82359 17.1878H12.1758C12.1558 17.0379 12.1455 16.8849 12.1455 16.7295C12.1455 14.831 13.6845 13.292 15.583 13.292C17.4815 13.292 19.0205 14.831 19.0205 16.7295C19.0205 16.8849 19.0102 17.0379 18.9903 17.1878H19.958C20.4528 17.1878 20.8538 16.7903 20.8538 16.2998V10.0837C20.8538 9.92269 20.8097 9.76475 20.7262 9.62679L18.0387 5.18669C17.8768 4.91921 17.5852 4.75555 17.2705 4.75555L13.6872 4.75553V3.86751C13.6872 3.37707 13.2861 2.97949 12.7913 2.97949H2.04134ZM13.6888 9.19559V6.53158L16.765 6.53158L18.3775 9.19559H13.6888Z" fill="white"/>
<path fill-rule="evenodd" clip-rule="evenodd" d="M6.64551 7.70443H1.14551V5.87109H6.64551V7.70443ZM4.81217 10.4545H1.14551V8.62109H4.81217V10.4545Z" fill="white"/>
</svg>
