<svg width="20" height="20" viewBox="0 0 20 20" fill="none" xmlns="http://www.w3.org/2000/svg">
<path d="M2.50631 18H16.1144C17.7881 18 18.6207 17.1783 18.6207 15.5843V14.3601H15.5088C13.4735 14.3601 12.2119 13.1111 12.2119 11.3117C12.2119 9.5123 13.4735 8.26342 15.5088 8.26342H18.6207V7.05558C18.6207 5.45335 17.7881 4.63992 16.1144 4.63992H2.50631C0.841046 4.63992 0 5.44514 0 7.05558V15.5843C0 17.1865 0.841046 18 2.50631 18ZM15.3659 12.1498C14.8865 12.1498 14.508 11.7719 14.508 11.3117C14.508 10.8434 14.8865 10.4736 15.3659 10.4736C15.8452 10.4736 16.2321 10.8434 16.2321 11.3117C16.2321 11.7719 15.8452 12.1498 15.3659 12.1498ZM15.5088 13.2919H18.5029C19.2767 13.2919 19.7477 12.7578 19.7477 12.0923V10.5312C19.7477 9.8574 19.2767 9.32334 18.5029 9.32334H15.5088C14.18 9.32334 13.3053 10.0053 13.3053 11.3117C13.3053 12.6182 14.18 13.2919 15.5088 13.2919ZM5.60134 3.51426H15.7527C15.7527 3.44852 15.7527 3.39101 15.7527 3.32528C15.6686 1.56694 14.3734 1.04108 12.6072 1.54229L5.60134 3.51426Z" fill="#3186DB" fill-opacity="0.85"/>
</svg>
